<?xml version="1.0" standalone="no"?>
<!DOCTYPE svg PUBLIC "-//W3C//DTD SVG 1.1//EN" "http://www.w3.org/Graphics/SVG/1.1/DTD/svg11.dtd" >
<svg xmlns="http://www.w3.org/2000/svg" xmlns:xlink="http://www.w3.org/1999/xlink" version="1.1">
<metadata></metadata>
<defs>
<font id="exothin" horiz-adv-x="1247" >
<font-face units-per-em="2048" ascent="1638" descent="-410" />
<missing-glyph horiz-adv-x="573" />
<glyph unicode="&#xfb01;" horiz-adv-x="1187" d="M55 1042v33l178 12v168q0 96 21.5 168t80 112t171.5 40q72 0 114 -8t82 -19v-32q-49 6 -98 10t-96 4q-96 0 -144.5 -32t-64.5 -93.5t-16 -149.5v-168h694v-45h-694v-1042h-50v1042h-178zM942 1335v127q0 25 25 25h22q12 0 17.5 -7t5.5 -18v-127q0 -25 -23 -24h-22 q-25 0 -25 24zM952 0v1087h49v-1087h-49z" />
<glyph unicode="&#xfb02;" horiz-adv-x="1335" d="M55 1042v33l178 12v168q0 96 26 168t98.5 112t209.5 40q92 0 168 -6t140.5 -14.5t125.5 -12.5v-33q-70 6 -144.5 11.5t-147 7.5t-140.5 2q-121 0 -183 -32t-82.5 -93.5t-20.5 -149.5v-168h385v-45h-385v-1042h-50v1042h-178zM952 346v1196h49v-1196q0 -125 23 -186.5 t64.5 -84t97.5 -28.5l131 -14v-33h-123q-76 0 -130 29.5t-83 104.5t-29 212z" />
<glyph unicode="&#xfb03;" horiz-adv-x="1953" d="M55 1042v33l178 12v168q0 96 21.5 168t80 112t171.5 40q72 0 114 -8t82 -19v-32q-49 6 -98 10t-96 4q-96 0 -144.5 -32t-64.5 -93.5t-16 -149.5v-168h739v-45h-739v-1042h-50v1042h-178zM821 1042v33l178 12v168q0 96 21.5 168t80 112t171.5 40q72 0 113.5 -8t82.5 -19 v-32q-49 6 -98 10t-96 4q-96 0 -144.5 -32t-64.5 -93.5t-16 -149.5v-168h694v-45h-694v-1042h-50v1042h-178zM1708 1335v127q0 25 25 25h22q12 0 17.5 -7t5.5 -18v-127q0 -25 -23 -24h-22q-25 0 -25 24zM1718 0v1087h49v-1087h-49z" />
<glyph unicode="&#xfb04;" horiz-adv-x="2101" d="M55 1042v33l178 12v168q0 96 21.5 168t80 112t171.5 40q72 0 114 -8t82 -19v-32q-49 6 -98 10t-96 4q-96 0 -144.5 -32t-64.5 -93.5t-16 -149.5v-168h741v-45h-741v-1042h-50v1042h-178zM821 1042v33l178 12v168q0 96 26 168t98.5 112t209.5 40q92 0 168 -6t140.5 -14.5 t125.5 -12.5v-33q-70 6 -144.5 11.5t-147 7.5t-140.5 2q-121 0 -183 -32t-82.5 -93.5t-20.5 -149.5v-168h385v-45h-385v-1042h-50v1042h-178zM1718 346v1196h49v-1196q0 -125 22.5 -186.5t64.5 -84t98 -28.5l131 -14v-33h-123q-76 0 -130 29.5t-83 104.5t-29 212z" />
<glyph horiz-adv-x="0" />
<glyph horiz-adv-x="682" />
<glyph unicode="&#xd;" horiz-adv-x="573" />
<glyph unicode=" "  horiz-adv-x="573" />
<glyph unicode="&#x09;" horiz-adv-x="573" />
<glyph unicode="&#xa0;" horiz-adv-x="573" />
<glyph unicode="!" horiz-adv-x="532" d="M227 25v127q0 25 25 24h22q25 0 25 -24v-127q0 -12 -7 -18.5t-18 -6.5h-22q-25 0 -25 25zM238 1497h49l-8 -1096h-33z" />
<glyph unicode="&#x22;" horiz-adv-x="395" d="M90 1378v138h51v-138l-12 -323h-25zM254 1378v138h51v-138l-12 -323h-25z" />
<glyph unicode="#" horiz-adv-x="1339" d="M57 510l4 25h365l66 421h-367l6 25h365l84 518h24l-84 -518h381l82 518h25l-82 -518h364l-4 -25h-366l-66 -421h365l-5 -25h-364l-80 -510h-25l80 510h-381l-79 -510h-25l80 510h-363zM451 535h378l66 421h-379z" />
<glyph unicode="$" d="M143 14v33q41 -4 112 -7t157 -5t172 -2q104 0 192 21.5t142.5 84t54.5 180.5v140q0 131 -64.5 201.5t-218.5 70.5h-188q-162 0 -258.5 70.5t-96.5 251.5v94q0 207 104.5 285.5t291.5 78.5q51 0 131 -5t158.5 -12t123.5 -15v-33q-88 6 -199.5 13t-213.5 7 q-109 0 -186.5 -27.5t-118.5 -96t-41 -195.5v-94q0 -160 80.5 -216.5t220.5 -56.5h192q117 0 189.5 -41t107.5 -113.5t35 -166.5v-140q0 -131 -63.5 -202.5t-162.5 -100t-212 -28.5q-35 0 -95.5 2t-128 6t-126 8t-91.5 10zM580 6l36 -2v-184h-36v186zM580 1501v187h36v-189z " />
<glyph unicode="%" horiz-adv-x="1953" d="M117 971v272q0 131 54 193.5t210 62.5h207q152 0 206 -62.5t54 -193.5v-272q0 -131 -54.5 -193.5t-209.5 -62.5h-207q-150 0 -205 62.5t-55 193.5zM150 971q0 -131 54 -177t173 -46h207q119 0 175 43t56 180v272q0 121 -47 172t-180 51h-207q-121 0 -176 -43t-55 -180 v-272zM496 0l897 1499h43l-897 -1499h-43zM1108 262v273q0 131 54.5 193.5t209.5 62.5h207q152 0 206 -62.5t54 -193.5v-273q0 -131 -54 -193.5t-210 -62.5h-207q-150 0 -205 62.5t-55 193.5zM1141 262q0 -131 54 -177t173 -46h207q119 0 175 43t56 180v273q0 121 -47 172 t-180 51h-207q-121 0 -176 -43t-55 -180v-273z" />
<glyph unicode="&#x26;" horiz-adv-x="1337" d="M92 381q0 102 46 200.5t155 190.5l145 123l-47 66q-63 84 -87.5 157.5t-24.5 130.5q0 94 45 148.5t118.5 78t159.5 23.5q82 0 136.5 -2t94 -4t80.5 -6v-33h-307q-119 0 -198.5 -44t-79.5 -157q0 -63 23.5 -123.5t82.5 -142.5l506 -688l315 305l21 -18l-143 -174 l-160 -152l192 -260h-63l-168 227l-62 -57q-109 -100 -198 -141t-185 -41q-113 0 -202.5 48t-142 136t-52.5 209zM141 383q0 -160 94.5 -253t256.5 -93q82 0 159.5 32.5t173.5 125.5l76 71l-436 590l-131 -108q-109 -90 -151 -182.5t-42 -182.5z" />
<glyph unicode="'" horiz-adv-x="231" d="M90 1378v138h51v-138l-12 -323h-25z" />
<glyph unicode="(" horiz-adv-x="645" d="M207 668q0 199 41 381t113.5 359t170.5 353h56q-98 -176 -173 -353t-117 -359.5t-42 -380.5q0 -201 42 -384.5t118 -358.5t174 -355h-58q-100 180 -172.5 355t-112.5 358.5t-40 384.5z" />
<glyph unicode=")" horiz-adv-x="643" d="M55 -430q111 188 184.5 364.5t110.5 355.5t37 378t-38 377t-111.5 354t-182.5 362h56q109 -186 181.5 -362t108 -354.5t35.5 -376.5q0 -201 -34.5 -380t-107.5 -354.5t-183 -363.5h-56z" />
<glyph unicode="*" horiz-adv-x="960" d="M139 1212v29l291 8v-49zM303 838l68 274l53 -8l-94 -275zM422 1481l27 8l137 -252l-49 -23zM489 1014l25 47l242 -170l-17 -23zM580 1130l229 170l16 -24l-209 -184z" />
<glyph unicode="+" d="M164 705v49h917v-49h-917zM598 270v918h49v-918h-49z" />
<glyph unicode="," horiz-adv-x="352" d="M141 27v123q0 27 25 26h20q14 0 19.5 -7t5.5 -19v-226q0 -29 -8 -43t-20.5 -18t-22.5 -4q-6 0 -10 1l-5 1v12q18 0 25.5 7t7.5 24v96h-12q-10 0 -17.5 7t-7.5 20z" />
<glyph unicode="-" horiz-adv-x="692" d="M55 569v49h582v-49h-582z" />
<glyph unicode="." horiz-adv-x="352" d="M141 25v127q0 25 25 24h22q25 0 25 -24v-127q0 -12 -7 -18.5t-18 -6.5h-22q-25 0 -25 25z" />
<glyph unicode="/" horiz-adv-x="724" d="M55 -147l576 1724h39l-576 -1724h-39z" />
<glyph unicode="0" horiz-adv-x="1355" d="M193 332v848q0 111 47 184.5t128 110t177 36.5h274q125 0 201 -44t109.5 -118.5t33.5 -168.5v-848q0 -182 -96 -257t-248 -75h-274q-92 0 -173 31.5t-130 104.5t-49 196zM242 332q0 -141 83 -214t220 -73h274q160 0 227.5 78t67.5 209v848q0 139 -73.5 212.5t-221.5 73.5 h-274q-137 0 -220 -75.5t-83 -210.5v-848z" />
<glyph unicode="1" horiz-adv-x="724" d="M111 1335v33l344 148h49v-1516h-49v1460z" />
<glyph unicode="2" horiz-adv-x="1224" d="M125 0v45l598 559q104 98 164.5 182t85 170t24.5 193q0 88 -32.5 159.5t-120.5 114.5t-256 43h-395v33q90 4 198.5 8t212.5 4q168 0 264.5 -48t137.5 -131t41 -187q0 -109 -29 -200t-92.5 -180t-169.5 -190l-557 -526h909v-49h-983z" />
<glyph unicode="3" horiz-adv-x="1208" d="M98 0v33h516q92 0 173 23.5t132.5 88t51.5 185.5v129q0 102 -49.5 160.5t-121 83t-141.5 26.5l-397 14v29l397 12q125 4 207 60.5t82 187.5v142q0 137 -90 214.5t-260 77.5h-434v33q74 6 184.5 9t261.5 3q137 0 222.5 -45t125 -121.5t39.5 -170.5v-142q0 -80 -27.5 -132 t-68.5 -83t-81 -44t-62 -15q27 -4 70.5 -21.5t89 -51.5t76 -90t30.5 -136v-129q0 -168 -105.5 -255t-300.5 -87q-162 0 -296 3t-224 9z" />
<glyph unicode="4" horiz-adv-x="1177" d="M59 481l629 1018h51l-628 -1020h716v488l17 112h33v-600h245v-33l-245 -12v-430h-50v430h-747z" />
<glyph unicode="5" horiz-adv-x="1329" d="M211 4v33h516q104 0 193.5 33.5t143.5 102.5t54 171v215q0 131 -83 207t-244 76h-195q-115 0 -185.5 -52.5t-93.5 -166.5h-45l43 876h809v-45h-764l-34 -709q20 49 88.5 95.5t187.5 46.5h191q119 0 201.5 -42t127.5 -115t45 -167v-223q0 -113 -59 -190.5t-157.5 -117.5 t-219.5 -40q-150 0 -287 2t-233 10z" />
<glyph unicode="6" horiz-adv-x="1302" d="M180 766q0 188 34 327.5t98.5 232.5t157.5 139t212 46q76 0 181.5 -5t185.5 -7v-33h-385q-193 0 -314 -165.5t-121 -512.5q74 4 166 7.5t177 4.5t133 1q125 0 223 -22.5t154.5 -85t56.5 -183.5v-207q0 -115 -46 -181.5t-122 -95t-162 -28.5h-244q-84 0 -154.5 34 t-121.5 117.5t-80 233t-29 383.5zM229 756q0 -213 23.5 -352.5t68 -218.5t105.5 -110.5t139 -31.5h244q74 0 138.5 19.5t104.5 75t40 161.5v211q0 104 -47.5 157.5t-134.5 71t-203 17.5h-478z" />
<glyph unicode="7" horiz-adv-x="1095" d="M82 1450v49h876l33 -47l-590 -1452h-57l590 1450h-852z" />
<glyph unicode="8" horiz-adv-x="1341" d="M207 274v224q0 86 38 139t88 82t87 37q-66 27 -107 68.5t-59 93t-18 104.5v174q0 113 39.5 181.5t110.5 100t161 31.5h278q94 0 156.5 -31.5t94.5 -100t32 -181.5v-174q0 -41 -11.5 -80t-34 -72.5t-53 -58.5t-69.5 -39q63 -10 106.5 -46t67 -90t23.5 -120v-242 q0 -90 -37 -150.5t-106.5 -92t-170.5 -31.5h-276q-82 0 -144.5 17.5t-106.5 52t-66.5 86t-22.5 118.5zM256 268q0 -121 85 -172t206 -51h276q129 0 196.5 55.5t67.5 167.5v236q0 133 -62 185t-216 52h-264q-35 0 -84 -11t-96.5 -37.5t-78 -73t-30.5 -115.5v-236zM285 1012 q0 -88 63.5 -157t196.5 -69h264q90 0 144.5 37t80 89.5t25.5 99.5v180q0 147 -57.5 209.5t-176.5 62.5h-278q-141 0 -201.5 -66.5t-60.5 -205.5v-180z" />
<glyph unicode="9" horiz-adv-x="1302" d="M166 993v207q0 115 47 181.5t122 95t161 28.5h243q84 0 155 -33.5t122 -117.5t79.5 -233.5t28.5 -383.5q0 -186 -33.5 -326.5t-98 -233.5t-157.5 -139t-212 -46q-76 0 -181.5 5t-185.5 7v33h385q195 0 314.5 166t119.5 512q-72 -4 -165 -7t-177 -4.5t-133 -1.5 q-125 0 -223 23t-154.5 85t-56.5 183zM213 993q0 -104 48 -156.5t134 -70.5t203 -18h477q0 213 -23.5 352t-67.5 218t-105.5 110.5t-139.5 31.5h-243q-74 0 -138.5 -19.5t-104.5 -74.5t-40 -162v-211z" />
<glyph unicode=":" horiz-adv-x="352" d="M141 25v127q0 25 25 24h22q25 0 25 -24v-127q0 -12 -7 -18.5t-18 -6.5h-22q-25 0 -25 25zM141 936v127q0 25 25 24h22q25 0 25 -24v-127q0 -12 -7 -18.5t-18 -6.5h-22q-25 0 -25 25z" />
<glyph unicode=";" horiz-adv-x="352" d="M141 27v123q0 27 25 26h20q14 0 19.5 -7t5.5 -19v-226q0 -29 -8 -43t-20.5 -18t-22.5 -4q-6 0 -10 1l-5 1v12q18 0 25.5 7t7.5 24v96h-12q-10 0 -17.5 7t-7.5 20zM141 936v127q0 25 25 24h22q25 0 25 -24v-127q0 -12 -7 -18.5t-18 -6.5h-22q-25 0 -25 25z" />
<glyph unicode="&#x3c;" d="M197 688v49l850 279v-41l-809 -260l809 -264v-41z" />
<glyph unicode="=" d="M164 459v49h917v-49h-917zM164 951v49h917v-49h-917z" />
<glyph unicode="&#x3e;" d="M201 410v41l809 260l-809 264v41l850 -279v-49z" />
<glyph unicode="?" horiz-adv-x="1089" d="M96 1382v29q104 59 213 79.5t221 22.5q145 2 224.5 -45t111 -137t31.5 -217v-166q0 -174 -107.5 -257t-361.5 -83v-209h-45v258h72q215 0 304 62.5t89 228.5v166q0 195 -75 274.5t-245 79.5q-115 0 -215 -19t-217 -67zM369 25v127q0 25 24 24h23q25 0 24 -24v-127 q0 -12 -7 -18.5t-17 -6.5h-23q-25 0 -24 25z" />
<glyph unicode="@" horiz-adv-x="1773" d="M180 61v713q0 23 4 63t19.5 87t52.5 89t101.5 69.5t166.5 27.5h410q55 0 110.5 -13.5t101.5 -45t73.5 -88t27.5 -140.5v-762h-33l-14 132q-2 0 -47 -23t-114.5 -52.5t-149.5 -52t-150 -22.5q-76 0 -135 30.5t-93 85t-34 124.5v108q0 104 68.5 168t195.5 64h457v196 q0 127 -73.5 184.5t-196.5 57.5h-404q-88 0 -154.5 -27.5t-103.5 -90t-37 -169.5v-713q0 -121 45 -189.5t113 -96t137 -27.5h654q158 0 235.5 79t77.5 234v1049q0 145 -77 240.5t-236 95.5h-797v29q49 10 139 14t206 5t245 1h207q82 0 148.5 -24.5t114.5 -72.5t73.5 -120 t25.5 -168v-1049q0 -100 -31.5 -183t-110.5 -132t-220 -49h-654q-78 0 -141.5 23.5t-108.5 69.5t-69.5 114.5t-24.5 156.5zM526 295q0 -92 62 -147.5t166 -55.5q61 0 145 22.5t166 52.5t133 54v373l-446 -21q-41 -2 -94.5 -14t-92.5 -51t-39 -121v-92z" />
<glyph unicode="A" horiz-adv-x="1363" d="M98 0l549 1499h70l549 -1499h-54l-192 522h-678l-190 -522h-54zM356 567h645l-319 883z" />
<glyph unicode="B" horiz-adv-x="1196" d="M180 0v1499h504q168 0 261 -90t93 -287q0 -96 -31.5 -167.5t-80.5 -115.5t-103 -61q35 -8 80 -29.5t89 -62.5t73 -106.5t29 -161.5q0 -166 -50.5 -256t-139.5 -126t-206 -36h-518zM229 45h469q102 0 180 29.5t122 110.5t44 237q0 106 -47 180t-125.5 113t-173.5 39h-469 v-709zM229 799h469q123 0 205 87t86 236v24q0 165 -80 234q-86 74 -225 74h-455v-655z" />
<glyph unicode="C" horiz-adv-x="1181" d="M143 754q0 225 29 372.5t92.5 231.5t165.5 118.5t248 34.5q35 0 102.5 -5t147.5 -13t151 -23v-32q-33 6 -98.5 12t-147 11t-159.5 5q-129 0 -221.5 -30.5t-149.5 -108.5t-83.5 -217t-26.5 -356q0 -231 26.5 -374.5t82.5 -218.5t145.5 -101.5t216.5 -26.5q154 0 253 9 t162 19v-32q-68 -12 -145.5 -21.5t-149 -14.5t-122.5 -5q-139 0 -238.5 30.5t-161 111.5t-90.5 231.5t-29 392.5z" />
<glyph unicode="D" horiz-adv-x="1351" d="M180 0v1499h559q123 0 211 -45t145.5 -137t85 -233.5t27.5 -333.5q0 -221 -53 -390.5t-157.5 -264.5t-258.5 -95h-559zM229 45h510q143 0 235.5 90t138.5 250t46 365q0 184 -23.5 317t-73.5 219t-130 127t-193 41h-510v-1409z" />
<glyph unicode="E" horiz-adv-x="1185" d="M180 252v981q0 76 21.5 127t58.5 82t83 44t95 13q102 -2 203.5 -4l203 -4t202.5 -4v-33h-609q-94 0 -151.5 -52t-57.5 -169v-467l736 -6v-33l-736 -6v-469q0 -96 34 -141t87 -58.5t109 -13.5h588v-33q-96 -2 -194.5 -4t-196 -4t-195.5 -4q-51 0 -100.5 8t-90.5 33.5 t-65.5 78t-24.5 138.5z" />
<glyph unicode="F" horiz-adv-x="1136" d="M180 0v1233q0 76 21.5 127t58.5 82t83 44t95 13q102 -2 203.5 -4l203 -4t202.5 -4v-33h-609q-94 0 -151.5 -53t-57.5 -168v-496l736 -6v-33l-736 -6v-692h-49z" />
<glyph unicode="G" horiz-adv-x="1314" d="M143 758q0 199 23.5 342t78 234t145.5 134t224 43q59 0 144.5 -5t170.5 -14t150 -22v-32q-39 4 -115.5 11t-169 12t-180.5 5q-162 0 -254 -73.5t-129.5 -230t-37.5 -408.5q0 -205 20 -343.5t69.5 -221.5t136.5 -118.5t222 -35.5q109 0 230.5 33.5t213.5 72.5v564h-438v28 q37 6 88 10.5t111.5 7.5t128.5 3q45 0 87 -2t73 -9v-743h-33l-12 109q-84 -39 -203 -78t-246 -41h-14q-136 0 -227 37q-97 39 -153.5 128t-80 237.5t-23.5 365.5z" />
<glyph unicode="H" horiz-adv-x="1359" d="M180 0v1499h49v-751h901v751h50v-1499h-50v702h-901v-702h-49z" />
<glyph unicode="I" horiz-adv-x="409" d="M180 0v1499h49v-1499h-49z" />
<glyph unicode="J" horiz-adv-x="755" d="M55 39v33q45 -14 108.5 -26.5t110.5 -12.5q74 0 130.5 20.5t89 76.5t32.5 167v1202h49v-1202q0 -121 -35.5 -188.5t-102.5 -94t-163 -26.5q-51 0 -114.5 15t-104.5 36z" />
<glyph unicode="K" horiz-adv-x="1173" d="M180 0v1499h49v-725h318l493 725h54l-508 -747l508 -752h-56l-493 729h-316v-729h-49z" />
<glyph unicode="L" horiz-adv-x="1083" d="M180 258v1241h49v-1241q0 -90 32 -135t80 -59.5t97 -14.5h586v-49h-586q-63 0 -122.5 20.5t-97.5 77t-38 160.5z" />
<glyph unicode="M" horiz-adv-x="1632" d="M139 0l166 1499h68l442 -1415l434 1415h72l172 -1499h-49l-170 1487l14 -6l-450 -1481h-43l-461 1479l14 4l-162 -1483h-47z" />
<glyph unicode="N" horiz-adv-x="1361" d="M221 0v1499h45l908 -1409v1409h49v-1499h-45l-908 1409v-1409h-49z" />
<glyph unicode="O" horiz-adv-x="1384" d="M143 739q0 250 35 402.5t104.5 232.5t172 108.5t237.5 28.5q141 0 244.5 -28.5t171.5 -108.5t100.5 -232.5t32.5 -402.5q0 -248 -33.5 -398.5t-102.5 -226t-171.5 -101t-241.5 -25.5q-137 0 -240.5 25.5t-172 101t-102.5 226.5t-34 398zM193 739q0 -231 26.5 -371.5 t86 -213t154.5 -97t232 -24.5q131 0 226.5 24.5t156 97t89 213t28.5 371.5q0 244 -29.5 389.5t-90 218t-155 96t-225.5 23.5q-121 0 -214 -23.5t-156.5 -96t-96 -218t-32.5 -389.5z" />
<glyph unicode="P" horiz-adv-x="1208" d="M180 0v1499h565q61 0 124 -17.5t117 -64.5t87 -136t33 -232q0 -145 -36 -236.5t-94 -141.5t-125 -68.5t-126 -18.5q-29 0 -96.5 1t-146.5 3t-148.5 4t-104.5 4v-596h-49zM229 629h496q86 0 162 34.5t122 125t46 260.5q0 168 -45 255t-116 118.5t-149 31.5h-516v-825z" />
<glyph unicode="Q" horiz-adv-x="1384" d="M143 739q0 250 35 402.5t104.5 232.5t172 108.5t237.5 28.5q141 0 244.5 -28.5t171.5 -108.5t100.5 -232.5t32.5 -402.5q0 -248 -33.5 -398.5t-102.5 -226t-171.5 -101t-241.5 -25.5q-137 0 -240.5 25.5t-172 101t-102.5 226.5t-34 398zM193 739q0 -231 26.5 -371.5 t86 -213t154.5 -97t232 -24.5q131 0 226.5 24.5t156 97t89 213t28.5 371.5q0 244 -29.5 389.5t-90 218t-155 96t-225.5 23.5q-121 0 -214 -23.5t-156.5 -96t-96 -218t-32.5 -389.5zM754 -68h32q35 -96 103.5 -140t140.5 -44q25 0 48.5 3t43.5 11v-49q-23 -8 -47 -12t-51 -4 q-57 0 -113.5 26.5t-98.5 80t-58 128.5z" />
<glyph unicode="R" horiz-adv-x="1212" d="M180 0v1499h565q61 0 124 -13t117 -54t87 -123t33 -219t-32 -221.5t-82 -128.5t-106.5 -60t-105.5 -18l330 -662h-49l-332 662q-41 0 -104.5 2t-136 3t-141 3t-118.5 4v-674h-49zM229 707h516q61 0 117 13t100 53t69.5 116t25.5 201q0 119 -26.5 190.5t-71 109t-99.5 51 t-115 13.5h-516v-747z" />
<glyph unicode="S" horiz-adv-x="1165" d="M143 14v33q41 -4 112 -7t157 -5t172 -2q104 0 192 21.5t142.5 84t54.5 180.5v140q0 131 -64.5 201.5t-218.5 70.5h-188q-162 0 -258.5 70.5t-96.5 251.5v94q0 207 104.5 285.5t291.5 78.5q51 0 131 -5t158.5 -12t123.5 -15v-33q-88 6 -199.5 13t-213.5 7 q-109 0 -186.5 -27.5t-118.5 -96t-41 -195.5v-94q0 -160 80.5 -216.5t220.5 -56.5h192q117 0 189.5 -41t107.5 -113.5t35 -166.5v-140q0 -131 -63.5 -202.5t-162.5 -100t-212 -28.5q-35 0 -95.5 2t-128 6t-126 8t-91.5 10z" />
<glyph unicode="T" horiz-adv-x="1126" d="M33 1454v45h1061v-45h-506v-1454h-49v1454h-506z" />
<glyph unicode="U" horiz-adv-x="1368" d="M160 451v1048h49v-1048q0 -166 56.5 -256.5t163 -126t255.5 -35.5q150 0 256.5 35.5t162.5 126t56 256.5v1048h49v-1048q0 -131 -33.5 -220.5t-100 -142.5t-165 -76.5t-225.5 -23.5t-225.5 23.5t-165 76.5t-100 142t-33.5 221z" />
<glyph unicode="V" horiz-adv-x="1363" d="M98 1499h52l532 -1456l532 1456h52l-549 -1499h-70z" />
<glyph unicode="W" horiz-adv-x="2029" d="M98 1499h52l389 -1456l442 1456h70l440 -1456l391 1456h49l-405 -1499h-70l-440 1450l-443 -1450h-69z" />
<glyph unicode="X" horiz-adv-x="1210" d="M102 1499h54l952 -1499h-53zM109 0l477 758l24 -45l-448 -713h-53zM610 780l445 719h53l-481 -778z" />
<glyph unicode="Y" horiz-adv-x="1249" d="M102 1499h54l469 -919l469 919h53l-498 -967v-532h-49v532z" />
<glyph unicode="Z" horiz-adv-x="1124" d="M96 0v45l889 1409h-889v45h948v-45l-888 -1409h888v-45h-948z" />
<glyph unicode="[" horiz-adv-x="669" d="M236 -78v1450q0 47 9 106.5t36.5 116t84 93t148.5 36.5h102v-45h-102q-100 0 -164.5 -71.5t-64.5 -235.5v-1450q0 -84 21.5 -153.5t72.5 -111.5t135 -42h102v-45h-102q-92 0 -148.5 37t-84 93t-36.5 116.5t-9 105.5z" />
<glyph unicode="\" horiz-adv-x="724" d="M55 1577h39l576 -1724h-39z" />
<glyph unicode="]" horiz-adv-x="669" d="M55 -385h103q86 0 136 42t71.5 111.5t21.5 153.5v1450q0 164 -63.5 235.5t-165.5 71.5h-103v45h103q92 0 148 -36.5t84 -93t37 -116t9 -106.5v-1450q0 -45 -9 -105.5t-37 -116.5t-84 -93t-148 -37h-103v45z" />
<glyph unicode="^" horiz-adv-x="833" d="M139 1087l271 267h41l245 -267h-37l-229 236l-254 -236h-37z" />
<glyph unicode="_" d="M0 -240h1247v-49h-1247v49z" />
<glyph unicode="`" horiz-adv-x="411" d="M55 1565h54l247 -273h-28z" />
<glyph unicode="a" horiz-adv-x="1105" d="M111 258v64q0 131 82.5 209.5t242.5 78.5h443v183q0 82 -28 142t-96.5 94t-193.5 34h-348v33q63 2 151.5 6t200.5 6h13q122 0 198 -35q80 -37 116 -107.5t36 -172.5v-793h-33l-16 131q-2 0 -50.5 -21.5t-124 -50t-160.5 -50t-161 -21.5q-117 0 -194.5 69.5t-77.5 200.5z M160 268q0 -86 34.5 -137t87 -71.5t101.5 -22.5h13q44 0 100 11q64 13 131 31.5t124.5 38t92.5 32.5l35 14v414l-455 -15q-145 -4 -204.5 -72.5t-59.5 -168.5v-54z" />
<glyph unicode="b" horiz-adv-x="1171" d="M186 0v1563h50v-592q90 53 200.5 91t198.5 38q125 0 212 -52.5t134 -175t47 -333.5q0 -158 -38 -283t-124 -196.5t-231 -71.5q-80 0 -156 21.5t-138 51t-105 56.5l-17 -117h-33zM236 150q82 -41 180 -79t219 -38q119 0 194.5 60.5t112.5 174t37 271.5q0 211 -43 321.5 t-120 152.5t-181 42q-119 0 -207 -32t-192 -85v-788z" />
<glyph unicode="c" horiz-adv-x="1003" d="M143 545q0 170 31 278.5t86 168t132 83t169 23.5q68 0 167 -3t177 -10v-32h-344q-113 0 -194.5 -40t-127.5 -151.5t-46 -324.5q0 -203 49 -312.5t132 -150.5t187 -41h361v-33q-45 -2 -101.5 -5t-122 -5t-137.5 -2q-88 0 -163.5 23.5t-133 83t-89.5 169t-32 281.5z" />
<glyph unicode="d" horiz-adv-x="1163" d="M143 539q0 203 43 326.5t134.5 179t236.5 55.5q104 0 204.5 -23.5t174.5 -50.5v537h49v-1563h-33l-16 117q-27 -25 -95.5 -54.5t-151 -52t-152.5 -22.5q-139 0 -226.5 61.5t-127.5 184t-40 305.5zM193 539q0 -172 34.5 -285t110.5 -167t199 -54q121 0 219 38t180 79v843 q-100 27 -184 44.5t-195 17.5q-129 0 -210 -49.5t-117.5 -162t-36.5 -304.5z" />
<glyph unicode="e" horiz-adv-x="1114" d="M143 549q0 213 42 332.5t138.5 169t256.5 49.5q131 0 217 -32t130 -107.5t44 -208.5q0 -84 -34 -137.5t-96.5 -77t-148.5 -23.5h-499q0 -176 30.5 -281.5t112.5 -152.5t237 -47h377v-33q-104 -8 -189.5 -10t-191.5 -2q-164 0 -257 53t-131 176t-38 332zM193 559h499 q117 0 173.5 41t56.5 152q0 119 -34 184t-108.5 92t-199.5 27q-152 0 -236 -42t-117.5 -149.5t-33.5 -304.5z" />
<glyph unicode="f" horiz-adv-x="712" d="M55 1042v33l178 12v168q0 96 21.5 168t80 112t171.5 40q72 0 114 -4t82 -8v-33h-194q-96 0 -144.5 -32t-64.5 -93.5t-16 -149.5v-168h385v-45h-385v-1042h-50v1042h-178z" />
<glyph unicode="g" horiz-adv-x="1169" d="M82 -160q0 100 53 164t133 94.5t160 30.5v-41q-74 0 -142.5 -24.5t-113.5 -79t-45 -144.5v-61q0 -131 87 -181.5t228 -50.5h287q162 0 253 61.5t91 190.5v51q0 72 -26.5 125.5t-94 83t-192.5 29.5h-398q-82 0 -137 42t-55 118q0 80 49 121t139 57q-86 29 -132 82 t-63.5 115.5t-17.5 121.5q0 131 53.5 207t143.5 108t197 32h577v-33l-309 -12q33 -16 77 -47t76.5 -94.5t32.5 -180.5q0 -76 -32.5 -151.5t-115.5 -127t-231 -51.5h-157q-113 0 -175.5 -31.5t-62.5 -115.5q0 -61 43 -88t88 -27h410q127 0 205.5 -32.5t115.5 -94t37 -149.5 v-58q0 -139 -100 -218t-289 -79h-287q-109 0 -189.5 30t-125.5 91.5t-45 155.5v61zM195 745q0 -162 78.5 -233.5t209.5 -71.5h127q137 0 209 42t98.5 106.5t26.5 136.5q0 119 -41 189.5t-109.5 101.5t-156.5 31h-119q-147 0 -235 -68t-88 -234z" />
<glyph unicode="h" horiz-adv-x="1191" d="M186 0v1563h50v-602q90 59 203.5 102t238.5 43q109 0 183.5 -49t113.5 -129t39 -170v-758h-49v758q0 82 -34 150.5t-97.5 110.5t-155.5 42q-90 0 -161 -15.5t-137.5 -44t-143.5 -69.5v-932h-50z" />
<glyph unicode="i" horiz-adv-x="421" d="M176 1335v127q0 25 25 25h22q12 0 17.5 -7t5.5 -18v-127q0 -25 -23 -24h-22q-25 0 -25 24zM186 0v1087h50v-1087h-50z" />
<glyph unicode="j" horiz-adv-x="421" d="M176 1335v127q0 25 25 25h22q12 0 17.5 -7t5.5 -18v-127q0 -25 -23 -24h-22q-25 0 -25 24zM186 -485v1572h50v-1032q0 -162 -6.5 -304t-10.5 -236h-33z" />
<glyph unicode="k" horiz-adv-x="958" d="M186 0v1563h50v-953h178l407 477h62l-434 -501l452 -586h-63l-432 565h-170v-565h-50z" />
<glyph unicode="l" horiz-adv-x="569" d="M186 346v1217h50v-1217q0 -125 22.5 -186.5t64.5 -84t97 -28.5l131 -14v-33h-123q-76 0 -130 29.5t-83 104.5t-29 212z" />
<glyph unicode="m" horiz-adv-x="1970" d="M186 0v1087h29l21 -126q90 59 203.5 102t238.5 43q104 0 179 -47t114 -121q53 41 135 79t174 63.5t174 25.5q109 0 184.5 -49t114.5 -129t39 -170v-758h-49v758q0 82 -34 150.5t-98.5 110.5t-156.5 42q-117 0 -239.5 -43t-233.5 -105q16 -37 24.5 -75.5t8.5 -79.5v-758 h-49v758q0 82 -34 150.5t-97.5 110.5t-155.5 42q-90 0 -162 -15.5t-138.5 -44t-141.5 -69.5v-932h-50z" />
<glyph unicode="n" horiz-adv-x="1191" d="M186 0v1087h29l21 -126q90 59 203.5 102t238.5 43q109 0 183.5 -49t113.5 -129t39 -170v-758h-49v758q0 82 -34 150.5t-97.5 110.5t-155.5 42q-90 0 -162 -15.5t-138.5 -44t-141.5 -69.5v-932h-50z" />
<glyph unicode="o" horiz-adv-x="1183" d="M143 545q0 176 30 285.5t88 168t141 80t188 21.5q104 0 188 -21.5t142.5 -80t89 -168t30.5 -285.5t-30.5 -287t-89 -169t-142.5 -79.5t-188 -21.5t-187.5 21.5t-141.5 79.5t-88 169t-30 287zM193 545q0 -168 26.5 -270.5t77.5 -154.5t125 -69.5t168 -17.5t169 17.5 t126 69.5t78.5 154.5t27.5 270.5q0 170 -27.5 271.5t-78.5 152.5t-126 68.5t-169 17.5t-168 -17.5t-125 -68.5t-77.5 -152.5t-26.5 -271.5z" />
<glyph unicode="p" horiz-adv-x="1171" d="M186 -485v1572h33l17 -116q35 23 102.5 53.5t147 53t149.5 22.5q111 0 186.5 -50.5t121.5 -132t65.5 -178t19.5 -190.5q0 -190 -46 -315t-133 -185.5t-214 -60.5q-100 0 -204.5 36.5t-194.5 92.5v-602h-50zM236 150q96 -51 197.5 -84t201.5 -33q102 0 179 50t121 162.5 t44 303.5q0 178 -50 289.5t-128 164t-166 52.5q-121 0 -219.5 -38t-179.5 -79v-788z" />
<glyph unicode="q" horiz-adv-x="1163" d="M143 549q0 172 42 296t130 189.5t228 65.5q98 0 179 -2t147.5 -6.5t115.5 -8.5v-1568h-49v602q-94 -59 -203.5 -94t-212.5 -35q-137 0 -220 64.5t-120 189.5t-37 307zM193 549q0 -174 33.5 -289t105 -171t188.5 -56q115 0 213 29.5t203 87.5v905h-399q-131 0 -206 -67.5 t-106.5 -182.5t-31.5 -256z" />
<glyph unicode="r" horiz-adv-x="827" d="M186 0v1087h33l17 -206q86 96 189 157.5t237 61.5q33 0 60.5 -3t49.5 -10v-49q-23 4 -50.5 8.5t-59.5 4.5q-88 0 -156 -23.5t-132.5 -69t-137.5 -110.5v-848h-50z" />
<glyph unicode="s" horiz-adv-x="1015" d="M123 764v53q0 100 39 161.5t114.5 90.5t186.5 29q49 0 121.5 -1t147.5 -4t122 -10v-32h-391q-139 0 -215 -48.5t-76 -185.5v-53q0 -86 35 -129t97.5 -56.5t141.5 -13.5h140q135 0 221 -63.5t86 -190.5v-59q0 -111 -48 -167t-127 -76.5t-173 -20.5q-31 0 -91.5 1t-128 3 t-121.5 4t-77 4v33h418q86 0 153.5 13t106.5 60.5t39 145.5v59q0 96 -63.5 150.5t-194.5 54.5h-140q-100 0 -172.5 21.5t-111.5 76t-39 150.5z" />
<glyph unicode="t" horiz-adv-x="716" d="M55 1042v33l172 12l17 306h32v-306h359v-45h-359v-718q0 -92 20.5 -146.5t53.5 -82t69 -38t66 -12.5l131 -12v-33h-112q-88 0 -150.5 34t-94.5 105.5t-32 184.5l4 718h-176z" />
<glyph unicode="u" horiz-adv-x="1191" d="M186 326v761h50v-761q0 -172 76.5 -232.5t222.5 -60.5q127 0 222 30.5t208 92.5v931h49v-1087h-29l-20 127q-88 -57 -203 -98t-240 -41q-162 0 -249 76.5t-87 261.5z" />
<glyph unicode="v" horiz-adv-x="1052" d="M49 1087h49l424 -1040l432 1040h50l-455 -1087h-53z" />
<glyph unicode="w" horiz-adv-x="1585" d="M49 1087h49l342 -1040l326 1040h53l326 -1040l342 1040h49l-365 -1087h-53l-325 1040l-326 -1040h-53z" />
<glyph unicode="x" horiz-adv-x="983" d="M66 0l401 549l25 -35l-375 -514h-51zM66 1087h55l797 -1087h-56zM489 565l375 520l54 2l-404 -552z" />
<glyph unicode="y" horiz-adv-x="1062" d="M49 1087h53l304 -849q29 -80 63.5 -119t67 -53.5t53.5 -14.5h22l351 1036h51l-457 -1370l-92 -202h-25l156 485q-20 2 -64.5 15.5t-91.5 60.5t-84 149z" />
<glyph unicode="z" horiz-adv-x="995" d="M102 1042v45h791v-45l-723 -997h723v-45h-778v45l719 997h-732z" />
<glyph unicode="{" horiz-adv-x="622" d="M55 655v56q35 4 78 16t75 43t32 90v483q0 98 25.5 185.5t96 141.5t205.5 54v-45q-90 0 -152.5 -31.5t-94 -104.5t-31.5 -200v-483q0 -74 -49.5 -120t-114.5 -56q66 -8 114 -56t48 -114v-592q0 -178 70.5 -242.5t209.5 -64.5v-45q-115 0 -181.5 31.5t-98 84t-40.5 115 t-9 121.5v584q0 49 -29 84t-71 52t-83 13z" />
<glyph unicode="|" horiz-adv-x="520" d="M236 -147v1724h49v-1724h-49z" />
<glyph unicode="}" horiz-adv-x="622" d="M55 -385q139 0 210 64.5t71 242.5v592q0 66 48 114t114 56q-66 10 -115 56t-49 120v483q0 127 -32 200t-94.5 104.5t-152.5 31.5v45q137 0 207 -54t95.5 -141t25.5 -186v-483q0 -59 31.5 -90t76 -43t76.5 -16v-56q-41 4 -83 -13t-70.5 -52t-28.5 -84v-584 q0 -59 -9 -121.5t-41 -115t-98.5 -84t-181.5 -31.5v45z" />
<glyph unicode="~" horiz-adv-x="968" d="M139 1171q53 47 105.5 83t111.5 36q33 0 68 -22.5t69.5 -52t65.5 -52t55 -22.5q59 0 114.5 40t90.5 68l12 -14q-51 -51 -101 -89t-116 -38q-35 0 -70.5 22.5t-68.5 52t-63.5 52t-55.5 22.5q-57 0 -105 -30.5t-104 -71.5z" />
<glyph unicode="&#xa1;" horiz-adv-x="532" d="M233 936v127q0 12 7.5 18t17.5 6h23q25 0 24 -24v-127q0 -25 -24 -25h-23q-25 0 -25 25zM246 -410l8 1096h33l8 -1096h-49z" />
<glyph unicode="&#xa2;" horiz-adv-x="999" d="M111 545q0 182 29.5 291.5t82.5 166t128 76t165 19.5v168h37v-170q74 -4 162 -18.5t159 -33.5v-28q-86 16 -176 26.5t-206 10.5q-78 0 -139.5 -19.5t-104.5 -73t-65.5 -156t-22.5 -267.5q0 -158 24.5 -257.5t69.5 -152.5t108.5 -72.5t141.5 -19.5q80 0 139 6t117.5 16.5 t128.5 24.5v-33q-102 -31 -174 -41t-162 -16v-160h-37v158q-84 0 -157.5 19.5t-129 76.5t-87 168t-31.5 291z" />
<glyph unicode="&#xa3;" d="M139 0v33l250 12v668l-250 6v33l250 6v338q0 170 50 257t137.5 116.5t197.5 29.5q72 0 149.5 -4t129.5 -8v-33h-275q-111 0 -186.5 -26.5t-114.5 -103.5t-39 -228v-338l492 -6v-33l-492 -6v-668h652v-45h-951z" />
<glyph unicode="&#xa4;" d="M178 319l221 222l35 -35l-221 -221zM178 1139l35 35l213 -213l-35 -35zM307 729q0 88 43 160t115 115t158 43q88 0 159.5 -43t114.5 -115t43 -160q0 -86 -43 -158.5t-114.5 -115.5t-159.5 -43q-86 0 -158 43t-115 115.5t-43 158.5zM358 729q0 -72 36 -133t96.5 -98 t132.5 -37q74 0 135 37t97 98t36 133q0 74 -36 135.5t-97.5 97t-134.5 35.5q-72 0 -132.5 -35.5t-96.5 -97t-36 -135.5zM815 502l35 35l217 -218l-35 -34zM815 956l217 218l35 -35l-217 -217z" />
<glyph unicode="&#xa5;" d="M80 1499h53l469 -919l469 919h53l-497 -967v-532h-49v532zM164 295v49h919v-49h-919zM164 532v50h919v-50h-919z" />
<glyph unicode="&#xa6;" horiz-adv-x="520" d="M236 -147v671h49v-671h-49zM236 879v698h49v-698h-49z" />
<glyph unicode="&#xa7;" horiz-adv-x="1144" d="M131 723v127q0 102 35 139t98 47q-66 12 -89 64.5t-23 107.5v144q0 100 37.5 155.5t106.5 77t163 21.5q35 0 99.5 -1t137 -2t134 -3.5t88.5 -6.5v-32h-459q-78 0 -136.5 -14.5t-90 -59.5t-31.5 -135v-144q0 -96 55 -121.5t162 -25.5h305q125 0 186.5 -20.5t83 -66.5 t21.5 -122v-127q0 -94 -26.5 -132t-98.5 -46q51 -10 72.5 -38t26.5 -63.5t5 -70.5v-150q0 -88 -40 -140t-116.5 -74.5t-187.5 -22.5q-33 0 -92 1t-125.5 3t-123 4t-81.5 4v33h422q125 0 187.5 25.5t85 68.5t22.5 98v150q0 59 -13 91t-60.5 44t-147.5 12h-305 q-106 0 -169 19.5t-90.5 63.5t-27.5 118zM180 723q0 -49 18.5 -84t70 -53.5t149.5 -18.5h305q111 0 162 9.5t65.5 42t14.5 106.5v127q0 68 -18.5 102.5t-71 48t-152.5 13.5h-305q-137 0 -187.5 -33t-50.5 -135v-125z" />
<glyph unicode="&#xa8;" horiz-adv-x="868" d="M201 1389v127q0 25 24 24h23q12 0 18 -7t6 -17v-127q0 -25 -24 -25h-23q-25 0 -24 25zM598 1389v127q0 25 25 24h22q12 0 18.5 -7t6.5 -17v-127q0 -25 -25 -25h-22q-25 0 -25 25z" />
<glyph unicode="&#xa9;" horiz-adv-x="1769" d="M152 754q0 125 22.5 256t76.5 241.5t150.5 179t243.5 68.5h524q121 0 202 -52t130 -137t75 -184.5t34 -198t8 -173.5q0 -147 -26.5 -283.5t-82 -242t-139.5 -167t-201 -61.5h-524q-113 0 -195.5 51t-140 135t-92.5 184.5t-50 201t-15 182.5zM180 754q-2 -121 25.5 -248 t85 -235.5t146.5 -175t208 -66.5h524q117 0 212.5 83t151.5 244.5t56 397.5q0 147 -22.5 276t-71.5 228.5t-129 155.5t-197 56h-524q-86 0 -168 -34.5t-147.5 -115.5t-106.5 -219t-43 -347zM512 748q0 166 39 263t106.5 140t149.5 43q43 0 106.5 -4t132 -12.5t125.5 -18.5 v-18q-63 10 -134.5 15t-133 7t-96.5 2q-80 0 -139.5 -42t-93 -135t-33.5 -247q0 -195 60.5 -303t205.5 -108q111 0 208 8t169 24v-18q-98 -27 -186.5 -35t-190.5 -8q-80 0 -147.5 36t-107.5 133t-40 278z" />
<glyph unicode="&#xaa;" horiz-adv-x="831" d="M82 555v41h639v-41h-639zM82 928v49q0 96 62.5 153.5t183.5 57.5h327v131q0 88 -48 141t-187 53h-262v31q49 4 115.5 6t152.5 4q98 2 158.5 -24.5t88 -78.5t27.5 -130v-584h-30l-15 97q-2 0 -37.5 -16.5t-91 -37t-119 -36t-120.5 -15.5q-88 0 -146.5 51t-58.5 148z M127 938q0 -63 25.5 -99t63.5 -51.5t77 -17.5q45 0 106.5 13.5t120 32t96.5 32.5l39 14v299l-333 -12q-106 -2 -150.5 -52t-44.5 -122v-37z" />
<glyph unicode="&#xab;" horiz-adv-x="1236" d="M139 569l422 416l33 -33l-389 -383l401 -391l-37 -35zM651 569l422 416l33 -33l-389 -383l401 -391l-37 -35z" />
<glyph unicode="&#xac;" d="M164 950v49h917v-49h-917zM1032 459v497h49v-497h-49z" />
<glyph unicode="&#xad;" horiz-adv-x="692" d="M55 569v49h582v-49h-582z" />
<glyph unicode="&#xae;" horiz-adv-x="1769" d="M152 754q0 125 22.5 256t76.5 241.5t150.5 179t243.5 68.5h524q121 0 202 -52t130 -137t75 -184.5t34 -198t8 -173.5q0 -147 -26.5 -283.5t-82 -242t-139.5 -167t-201 -61.5h-524q-113 0 -195.5 51t-140 135t-92.5 184.5t-50 201t-15 182.5zM180 754q-2 -121 25.5 -248 t85 -235.5t146.5 -175t208 -66.5h524q117 0 212.5 83t151.5 244.5t56 397.5q0 147 -22.5 276t-71.5 228.5t-129 155.5t-197 56h-524q-86 0 -168 -34.5t-147.5 -115.5t-106.5 -219t-43 -347zM584 313v875h362q68 0 125 -19.5t93 -75t36 -163.5q0 -88 -25.5 -134t-62.5 -62.5 t-76 -19.5t-63 -5l227 -396h-35l-227 394l-326 10v-404h-28zM612 735h346q104 0 158.5 35t54.5 158q0 133 -57 182t-156 49h-346v-424z" />
<glyph unicode="&#xaf;" horiz-adv-x="792" d="M139 1415v31h516v-31h-516z" />
<glyph unicode="&#xb0;" horiz-adv-x="692" d="M98 1294q0 74 33 130.5t89 89t128 32.5q109 0 177.5 -71.5t68.5 -180.5t-68.5 -179.5t-177.5 -70.5q-106 0 -178 71t-72 179zM127 1294q0 -94 63.5 -157.5t157.5 -63.5q96 0 156.5 63.5t60.5 157.5q0 96 -60.5 160t-156.5 64q-94 0 -157.5 -63.5t-63.5 -160.5z" />
<glyph unicode="&#xb1;" d="M164 295v49h917v-49h-917zM164 1012v49h917v-49h-917zM598 577v918h49v-918h-49z" />
<glyph unicode="&#xb2;" horiz-adv-x="937" d="M109 573v41l446 410q115 106 159 193.5t44 199.5q0 63 -23.5 115.5t-89 83.5t-188.5 31h-299v30q68 4 150.5 7.5t160.5 3.5q127 0 199.5 -36t103.5 -96.5t31 -138.5q0 -80 -20.5 -147.5t-68.5 -132t-128 -140.5l-412 -379h676v-45h-741z" />
<glyph unicode="&#xb3;" horiz-adv-x="937" d="M88 575v31h387q70 0 129.5 17.5t97 63.5t37.5 132v94q0 74 -35.5 116t-89 59.5t-104.5 19.5l-299 10v29l299 8q92 4 152.5 45t60.5 135v101q0 98 -66.5 154.5t-193.5 56.5h-326v30q57 6 141 8.5t199 2.5q152 0 221.5 -72t69.5 -178v-103q0 -78 -35 -121t-77 -61t-66 -20 q29 -4 76 -27t84.5 -69t37.5 -126v-94q0 -123 -81 -187.5t-226 -64.5q-121 0 -222 2t-171 8z" />
<glyph unicode="&#xb4;" horiz-adv-x="411" d="M55 1292l248 273h53l-272 -273h-29z" />
<glyph unicode="&#xb5;" horiz-adv-x="1191" d="M186 367v723h50v-764q0 -115 37.5 -178.5t105 -89t156.5 -25.5q127 0 222 30.5t208 92.5v934h49v-1090h-29l-20 127q-88 -57 -203 -98t-240 -41q-90 0 -154.5 27.5t-104.5 78.5t-58.5 121t-18.5 152zM186 449h50v-998h-50v998z" />
<glyph unicode="&#xb6;" horiz-adv-x="1171" d="M90 961v251q0 98 50 162t128 94.5t162 30.5h686v-53h-182v-1446h-49v1450h-234v-2003h-49v1219q-14 -10 -58 -16.5t-114 -4.5q-113 0 -188.5 43t-113.5 114.5t-38 158.5zM139 965q0 -90 36 -144.5t87 -82t98 -36t70 -8.5h172v756h-172q-141 0 -216 -69.5t-75 -172.5v-243 z" />
<glyph unicode="&#xb7;" horiz-adv-x="540" d="M236 770v25q0 25 24 24h23q25 0 24 -24v-25q0 -12 -7 -18.5t-17 -6.5h-23q-25 0 -24 25z" />
<glyph unicode="&#xb8;" horiz-adv-x="546" d="M139 -354l54 4q66 4 101.5 29.5t35.5 80.5q0 41 -32 71t-138 30l28 20q98 0 135 -32.5t37 -92.5q0 -63 -48 -97t-132 -34h-41v21zM160 -139l108 159h29l-109 -159h-28z" />
<glyph unicode="&#xb9;" horiz-adv-x="937" d="M158 573v41h653v-41h-653zM174 1552v31l289 109h43v-1119h-45v1069z" />
<glyph unicode="&#xba;" horiz-adv-x="890" d="M106 1139q0 174 40 261t116 117.5t182 30.5t182 -30.5t117 -117.5t41 -261q0 -172 -41 -260t-116.5 -119t-182.5 -31q-106 0 -182 31t-116 119t-40 260zM125 555v41h641v-41h-641zM152 1139q0 -162 34.5 -242t100 -104.5t157.5 -24.5t158 24.5t101.5 104.5t35.5 242 q0 164 -35.5 242.5t-101 103t-158.5 24.5q-92 0 -157.5 -24.5t-100 -103t-34.5 -242.5z" />
<glyph unicode="&#xbb;" horiz-adv-x="1236" d="M119 950l37 35l430 -426l-422 -416l-33 33l389 383zM631 950l37 35l430 -426l-422 -416l-33 33l389 383z" />
<glyph unicode="&#xbc;" horiz-adv-x="2611" d="M178 573v41h653v-41h-653zM194 1552v31l289 109h43v-1119h-45v1069zM891 0l778 1577h50l-779 -1577h-49zM1716 355l469 751h47l-467 -749h527v352l14 86h31v-438h182v-31l-182 -10v-314h-45v314h-560z" />
<glyph unicode="&#xbd;" horiz-adv-x="2611" d="M178 573v41h653v-41h-653zM194 1552v31l289 109h43v-1119h-45v1069zM891 0l778 1577h50l-779 -1577h-49zM1737 0v41l446 410q115 106 159 193.5t44 199.5q0 63 -23.5 115.5t-89 83.5t-188.5 31h-299v30q68 4 150.5 7.5t160.5 3.5q127 0 199.5 -36t103.5 -96.5t31 -138.5 q0 -80 -20.5 -147.5t-68.5 -132t-128 -140.5l-412 -379h676v-45h-741z" />
<glyph unicode="&#xbe;" horiz-adv-x="2611" d="M108 575v31h387q70 0 129.5 17.5t97 63.5t37.5 132v94q0 74 -35.5 116t-89 59.5t-104.5 19.5l-299 10v29l299 8q92 4 152.5 45t60.5 135v101q0 98 -66.5 154.5t-193.5 56.5h-326v30q57 6 141 8.5t199 2.5q152 0 221.5 -72t69.5 -178v-103q0 -78 -35 -121t-77 -61t-66 -20 q29 -4 76 -27t84.5 -69t37.5 -126v-94q0 -123 -81 -187.5t-226 -64.5q-121 0 -222 2t-171 8zM891 0l778 1577h50l-779 -1577h-49zM1716 355l469 751h47l-467 -749h527v352l14 86h31v-438h182v-31l-182 -10v-314h-45v314h-560z" />
<glyph unicode="&#xbf;" horiz-adv-x="1089" d="M193 -27v166q0 174 107.5 257t361.5 83v209h45v-258h-72q-215 0 -304 -62.5t-89 -228.5v-166q0 -195 74.5 -274.5t244.5 -79.5q115 0 215.5 20.5t216.5 65.5v-29q-104 -59 -212.5 -79.5t-221.5 -22.5q-143 -2 -223 45t-111.5 137t-31.5 217zM649 936v127q0 12 7.5 18 t17.5 6h22q25 0 25 -24v-127q0 -25 -25 -25h-22q-25 0 -25 25z" />
<glyph unicode="&#xc0;" horiz-adv-x="1363" d="M98 0l549 1499h70l549 -1499h-54l-192 522h-678l-190 -522h-54zM356 567h645l-319 883zM387 1893h54l247 -273h-28z" />
<glyph unicode="&#xc1;" horiz-adv-x="1363" d="M98 0l549 1499h70l549 -1499h-54l-192 522h-678l-190 -522h-54zM356 567h645l-319 883zM673 1620l248 273h53l-272 -273h-29z" />
<glyph unicode="&#xc2;" horiz-adv-x="1363" d="M98 0l549 1499h70l549 -1499h-54l-192 522h-678l-190 -522h-54zM356 567h645l-319 883zM395 1620l271 267h41l245 -267h-37l-229 236l-254 -236h-37z" />
<glyph unicode="&#xc3;" horiz-adv-x="1363" d="M98 0l549 1499h70l549 -1499h-54l-192 522h-678l-190 -522h-54zM356 567h645l-319 883zM356 1682q0 70 28 108.5t69.5 56t82.5 17.5q47 0 90.5 -22.5t84 -52t79.5 -52.5t80 -23q63 0 108.5 38t45.5 112h29q0 -80 -49.5 -131t-137.5 -51q-45 0 -86 22.5t-82 52t-82 52 t-84 22.5q-57 0 -102 -33.5t-45 -115.5h-29z" />
<glyph unicode="&#xc4;" horiz-adv-x="1363" d="M98 0l549 1499h70l549 -1499h-54l-192 522h-678l-190 -522h-54zM356 567h645l-319 883zM369 1716v127q0 25 24 25h23q12 0 18 -7.5t6 -17.5v-127q0 -25 -24 -24h-23q-25 0 -24 24zM889 1716v127q0 25 25 25h22q12 0 18.5 -7.5t6.5 -17.5v-127q0 -25 -25 -24h-22 q-25 0 -25 24z" />
<glyph unicode="&#xc5;" horiz-adv-x="1363" d="M98 0l549 1499h70l549 -1499h-54l-192 522h-678l-190 -522h-54zM356 567h645l-319 883zM473 1766q0 119 54.5 165t154.5 46q102 0 153.5 -46.5t51.5 -164.5q0 -119 -51.5 -164t-153.5 -45q-100 0 -154.5 45t-54.5 164zM506 1766q0 -104 44 -140t132 -36q90 0 131 35.5 t41 140.5q0 104 -41 141t-131 37q-88 0 -132 -37t-44 -141z" />
<glyph unicode="&#xc6;" horiz-adv-x="1945" d="M98 0l822 1317q35 53 75.5 95t98 65.5t135.5 21.5q145 -2 289.5 -5t287.5 -7v-33h-589q-94 0 -131 -37t-37 -117v-534l675 -6v-33l-675 -6v-469q0 -74 25.5 -121t76.5 -69.5t127 -22.5h528v-33q-131 -2 -263 -5t-265 -7q-129 -2 -204 54t-75 200v270h-522l-325 -518h-54z M504 563h495v783z" />
<glyph unicode="&#xc7;" horiz-adv-x="1181" d="M143 754q0 225 29 372.5t92.5 231.5t165.5 118.5t248 34.5q35 0 102.5 -5t147.5 -13t151 -23v-32q-33 6 -98.5 12t-147 11t-159.5 5q-129 0 -221.5 -30.5t-149.5 -108.5t-83.5 -217t-26.5 -356q0 -231 26.5 -374.5t82.5 -218.5t145.5 -101.5t216.5 -26.5q154 0 253 9 t162 19v-32q-68 -12 -145.5 -21.5t-149 -14.5t-122.5 -5q-139 0 -238.5 30.5t-161 111.5t-90.5 231.5t-29 392.5zM542 -354l54 4q66 4 101.5 29.5t35.5 80.5q0 41 -32 71t-138 30l28 20q98 0 135 -32.5t37 -92.5q0 -63 -48 -97t-132 -34h-41v21zM563 -139l108 159h29 l-109 -159h-28z" />
<glyph unicode="&#xc8;" horiz-adv-x="1185" d="M180 252v981q0 76 21.5 127t58.5 82t83 44t95 13q102 -2 203.5 -4l203 -4t202.5 -4v-33h-609q-94 0 -151.5 -52t-57.5 -169v-467l736 -6v-33l-736 -6v-469q0 -96 34 -141t87 -58.5t109 -13.5h588v-33q-96 -2 -194.5 -4t-196 -4t-195.5 -4q-51 0 -100.5 8t-90.5 33.5 t-65.5 78t-24.5 138.5zM340 1893h54l247 -273h-28z" />
<glyph unicode="&#xc9;" horiz-adv-x="1185" d="M180 252v981q0 76 21.5 127t58.5 82t83 44t95 13q102 -2 203.5 -4l203 -4t202.5 -4v-33h-609q-94 0 -151.5 -52t-57.5 -169v-467l736 -6v-33l-736 -6v-469q0 -96 34 -141t87 -58.5t109 -13.5h588v-33q-96 -2 -194.5 -4t-196 -4t-195.5 -4q-51 0 -100.5 8t-90.5 33.5 t-65.5 78t-24.5 138.5zM626 1620l248 273h53l-272 -273h-29z" />
<glyph unicode="&#xca;" horiz-adv-x="1185" d="M180 252v981q0 76 21.5 127t58.5 82t83 44t95 13q102 -2 203.5 -4l203 -4t202.5 -4v-33h-609q-94 0 -151.5 -52t-57.5 -169v-467l736 -6v-33l-736 -6v-469q0 -96 34 -141t87 -58.5t109 -13.5h588v-33q-96 -2 -194.5 -4t-196 -4t-195.5 -4q-51 0 -100.5 8t-90.5 33.5 t-65.5 78t-24.5 138.5zM348 1620l271 267h41l245 -267h-37l-229 236l-254 -236h-37z" />
<glyph unicode="&#xcb;" horiz-adv-x="1185" d="M180 252v981q0 76 21.5 127t58.5 82t83 44t95 13q102 -2 203.5 -4l203 -4t202.5 -4v-33h-609q-94 0 -151.5 -52t-57.5 -169v-467l736 -6v-33l-736 -6v-469q0 -96 34 -141t87 -58.5t109 -13.5h588v-33q-96 -2 -194.5 -4t-196 -4t-195.5 -4q-51 0 -100.5 8t-90.5 33.5 t-65.5 78t-24.5 138.5zM322 1716v127q0 25 24 25h23q12 0 18 -7.5t6 -17.5v-127q0 -25 -24 -24h-23q-25 0 -24 24zM842 1716v127q0 25 25 25h22q12 0 18.5 -7.5t6.5 -17.5v-127q0 -25 -25 -24h-22q-25 0 -25 24z" />
<glyph unicode="&#xcc;" horiz-adv-x="409" d="M-90 1893h54l247 -273h-28zM180 0v1499h49v-1499h-49z" />
<glyph unicode="&#xcd;" horiz-adv-x="409" d="M180 0v1499h49v-1499h-49zM196 1620l248 273h53l-272 -273h-29z" />
<glyph unicode="&#xce;" horiz-adv-x="409" d="M-82 1620l271 267h41l245 -267h-37l-229 236l-254 -236h-37zM180 0v1499h49v-1499h-49z" />
<glyph unicode="&#xcf;" horiz-adv-x="409" d="M-108 1716v127q0 25 24 25h23q12 0 18 -7.5t6 -17.5v-127q0 -25 -24 -24h-23q-25 0 -24 24zM180 0v1499h49v-1499h-49zM412 1716v127q0 25 25 25h22q12 0 18.5 -7.5t6.5 -17.5v-127q0 -25 -25 -24h-22q-25 0 -25 24z" />
<glyph unicode="&#xd0;" horiz-adv-x="1351" d="M35 739v45h622v-45h-622zM180 0v1499h559q123 0 211 -45t145.5 -137t85 -233.5t27.5 -333.5q0 -221 -53 -390.5t-157.5 -264.5t-258.5 -95h-559zM229 45h510q143 0 235.5 90t138.5 250t46 365q0 184 -23.5 317t-73.5 219t-130 127t-193 41h-510v-1409z" />
<glyph unicode="&#xd1;" horiz-adv-x="1361" d="M221 0v1499h45l908 -1409v1409h49v-1499h-45l-908 1409v-1409h-49zM364 1682q0 70 28 108.5t69.5 56t82.5 17.5q47 0 90.5 -22.5t84 -52t79.5 -52.5t80 -23q63 0 108.5 38t45.5 112h29q0 -80 -49.5 -131t-137.5 -51q-45 0 -86 22.5t-82 52t-82 52t-84 22.5 q-57 0 -102 -33.5t-45 -115.5h-29z" />
<glyph unicode="&#xd2;" horiz-adv-x="1384" d="M143 739q0 250 35 402.5t104.5 232.5t172 108.5t237.5 28.5q141 0 244.5 -28.5t171.5 -108.5t100.5 -232.5t32.5 -402.5q0 -248 -33.5 -398.5t-102.5 -226t-171.5 -101t-241.5 -25.5q-137 0 -240.5 25.5t-172 101t-102.5 226.5t-34 398zM193 739q0 -231 26.5 -371.5 t86 -213t154.5 -97t232 -24.5q131 0 226.5 24.5t156 97t89 213t28.5 371.5q0 244 -29.5 389.5t-90 218t-155 96t-225.5 23.5q-121 0 -214 -23.5t-156.5 -96t-96 -218t-32.5 -389.5zM397 1893h54l247 -273h-28z" />
<glyph unicode="&#xd3;" horiz-adv-x="1384" d="M143 739q0 250 35 402.5t104.5 232.5t172 108.5t237.5 28.5q141 0 244.5 -28.5t171.5 -108.5t100.5 -232.5t32.5 -402.5q0 -248 -33.5 -398.5t-102.5 -226t-171.5 -101t-241.5 -25.5q-137 0 -240.5 25.5t-172 101t-102.5 226.5t-34 398zM193 739q0 -231 26.5 -371.5 t86 -213t154.5 -97t232 -24.5q131 0 226.5 24.5t156 97t89 213t28.5 371.5q0 244 -29.5 389.5t-90 218t-155 96t-225.5 23.5q-121 0 -214 -23.5t-156.5 -96t-96 -218t-32.5 -389.5zM684 1620l248 273h53l-272 -273h-29z" />
<glyph unicode="&#xd4;" horiz-adv-x="1384" d="M143 739q0 250 35 402.5t104.5 232.5t172 108.5t237.5 28.5q141 0 244.5 -28.5t171.5 -108.5t100.5 -232.5t32.5 -402.5q0 -248 -33.5 -398.5t-102.5 -226t-171.5 -101t-241.5 -25.5q-137 0 -240.5 25.5t-172 101t-102.5 226.5t-34 398zM193 739q0 -231 26.5 -371.5 t86 -213t154.5 -97t232 -24.5q131 0 226.5 24.5t156 97t89 213t28.5 371.5q0 244 -29.5 389.5t-90 218t-155 96t-225.5 23.5q-121 0 -214 -23.5t-156.5 -96t-96 -218t-32.5 -389.5zM405 1620l271 267h41l245 -267h-37l-229 236l-254 -236h-37z" />
<glyph unicode="&#xd5;" horiz-adv-x="1384" d="M143 739q0 250 35 402.5t104.5 232.5t172 108.5t237.5 28.5q141 0 244.5 -28.5t171.5 -108.5t100.5 -232.5t32.5 -402.5q0 -248 -33.5 -398.5t-102.5 -226t-171.5 -101t-241.5 -25.5q-137 0 -240.5 25.5t-172 101t-102.5 226.5t-34 398zM193 739q0 -231 26.5 -371.5 t86 -213t154.5 -97t232 -24.5q131 0 226.5 24.5t156 97t89 213t28.5 371.5q0 244 -29.5 389.5t-90 218t-155 96t-225.5 23.5q-121 0 -214 -23.5t-156.5 -96t-96 -218t-32.5 -389.5zM366 1682q0 70 28 108.5t69.5 56t82.5 17.5q47 0 90.5 -22.5t84 -52t79.5 -52.5t80 -23 q63 0 108.5 38t45.5 112h29q0 -80 -49.5 -131t-137.5 -51q-45 0 -86 22.5t-82 52t-82 52t-84 22.5q-57 0 -102 -33.5t-45 -115.5h-29z" />
<glyph unicode="&#xd6;" horiz-adv-x="1384" d="M143 739q0 250 35 402.5t104.5 232.5t172 108.5t237.5 28.5q141 0 244.5 -28.5t171.5 -108.5t100.5 -232.5t32.5 -402.5q0 -248 -33.5 -398.5t-102.5 -226t-171.5 -101t-241.5 -25.5q-137 0 -240.5 25.5t-172 101t-102.5 226.5t-34 398zM193 739q0 -231 26.5 -371.5 t86 -213t154.5 -97t232 -24.5q131 0 226.5 24.5t156 97t89 213t28.5 371.5q0 244 -29.5 389.5t-90 218t-155 96t-225.5 23.5q-121 0 -214 -23.5t-156.5 -96t-96 -218t-32.5 -389.5zM379 1716v127q0 25 24 25h23q12 0 18 -7.5t6 -17.5v-127q0 -25 -24 -24h-23q-25 0 -24 24z M899 1716v127q0 25 25 25h22q12 0 18.5 -7.5t6.5 -17.5v-127q0 -25 -25 -24h-22q-25 0 -25 24z" />
<glyph unicode="&#xd7;" d="M281 422l649 649l35 -35l-650 -649zM281 1036l34 35l650 -649l-35 -35z" />
<glyph unicode="&#xd8;" horiz-adv-x="1384" d="M143 739q0 250 35 402.5t104.5 232.5t172 108.5t237.5 28.5q141 0 244.5 -28.5t171.5 -108.5t100.5 -232.5t32.5 -402.5q0 -248 -33.5 -398.5t-102.5 -226t-171.5 -101t-241.5 -25.5q-137 0 -240.5 25.5t-172 101t-102.5 226.5t-34 398zM174 0l985 1499h51l-985 -1499 h-51zM193 739q0 -231 26.5 -371.5t86 -213t154.5 -97t232 -24.5q131 0 226.5 24.5t156 97t89 213t28.5 371.5q0 244 -29.5 389.5t-90 218t-155 96t-225.5 23.5q-121 0 -214 -23.5t-156.5 -96t-96 -218t-32.5 -389.5z" />
<glyph unicode="&#xd9;" horiz-adv-x="1368" d="M160 451v1048h49v-1048q0 -166 56.5 -256.5t163 -126t255.5 -35.5q150 0 256.5 35.5t162.5 126t56 256.5v1048h49v-1048q0 -131 -33.5 -220.5t-100 -142.5t-165 -76.5t-225.5 -23.5t-225.5 23.5t-165 76.5t-100 142t-33.5 221zM389 1893h54l247 -273h-28z" />
<glyph unicode="&#xda;" horiz-adv-x="1368" d="M160 451v1048h49v-1048q0 -166 56.5 -256.5t163 -126t255.5 -35.5q150 0 256.5 35.5t162.5 126t56 256.5v1048h49v-1048q0 -131 -33.5 -220.5t-100 -142.5t-165 -76.5t-225.5 -23.5t-225.5 23.5t-165 76.5t-100 142t-33.5 221zM676 1620l248 273h53l-272 -273h-29z" />
<glyph unicode="&#xdb;" horiz-adv-x="1368" d="M160 451v1048h49v-1048q0 -166 56.5 -256.5t163 -126t255.5 -35.5q150 0 256.5 35.5t162.5 126t56 256.5v1048h49v-1048q0 -131 -33.5 -220.5t-100 -142.5t-165 -76.5t-225.5 -23.5t-225.5 23.5t-165 76.5t-100 142t-33.5 221zM397 1620l271 267h41l245 -267h-37 l-229 236l-254 -236h-37z" />
<glyph unicode="&#xdc;" horiz-adv-x="1368" d="M160 451v1048h49v-1048q0 -166 56.5 -256.5t163 -126t255.5 -35.5q150 0 256.5 35.5t162.5 126t56 256.5v1048h49v-1048q0 -131 -33.5 -220.5t-100 -142.5t-165 -76.5t-225.5 -23.5t-225.5 23.5t-165 76.5t-100 142t-33.5 221zM371 1716v127q0 25 24 25h23q12 0 18 -7.5 t6 -17.5v-127q0 -25 -24 -24h-23q-25 0 -24 24zM891 1716v127q0 25 25 25h22q12 0 18.5 -7.5t6.5 -17.5v-127q0 -25 -25 -24h-22q-25 0 -25 24z" />
<glyph unicode="&#xdd;" horiz-adv-x="1249" d="M102 1499h54l469 -919l469 919h53l-498 -967v-532h-49v532zM616 1620l248 273h53l-272 -273h-29z" />
<glyph unicode="&#xde;" horiz-adv-x="1105" d="M180 0v1499h49v-301h414q61 0 123.5 -16.5t117 -59.5t87.5 -123.5t33 -210.5q0 -131 -36 -215t-94.5 -129t-125 -62t-125.5 -17q-23 0 -76 1t-116.5 3t-119 4t-82.5 4v-377h-49zM229 410h394q86 0 161.5 30.5t121.5 113.5t46 234q0 152 -45 230t-115.5 106.5t-148.5 28.5 h-414v-743z" />
<glyph unicode="&#xdf;" horiz-adv-x="1159" d="M166 0v1143q0 119 46 217t140 156.5t240 58.5q152 0 241 -42t127.5 -109.5t38.5 -147.5q0 -88 -38.5 -149.5t-95 -109.5t-113 -92t-95.5 -94.5t-39 -117.5q0 -57 36 -89t91.5 -47.5t118 -28.5t117.5 -34.5t91 -62.5t36 -117v-64q0 -70 -22.5 -123t-65.5 -90t-102.5 -55 t-133.5 -18q-104 0 -202.5 10t-151.5 20v29q59 -2 153.5 -6t200.5 -4q117 0 176.5 41t79 97t19.5 99v64q0 63 -36 96t-91 50.5t-117.5 29.5t-118 32.5t-91.5 59.5t-36 111q0 74 39 129t96.5 101t113.5 93t95 104.5t39 133.5q0 123 -92 187.5t-268 64.5t-276.5 -99.5 t-100.5 -283.5v-1143h-49z" />
<glyph unicode="&#xe0;" horiz-adv-x="1105" d="M111 258v64q0 131 82.5 209.5t242.5 78.5h443v183q0 82 -28 142t-96.5 94t-193.5 34h-348v33q63 2 151.5 6t200.5 6q131 2 211 -35t116 -107.5t36 -172.5v-793h-33l-16 131q-2 0 -50.5 -21.5t-124 -50t-160.5 -50t-161 -21.5q-117 0 -194.5 69.5t-77.5 200.5zM160 268 q0 -86 34.5 -137t87 -71.5t101.5 -22.5t113.5 11t131 31.5t124 38t92.5 32.5l35 14v414l-455 -15q-145 -4 -204.5 -72.5t-59.5 -168.5v-54zM299 1565h54l247 -273h-28z" />
<glyph unicode="&#xe1;" horiz-adv-x="1105" d="M111 258v64q0 131 82.5 209.5t242.5 78.5h443v183q0 82 -28 142t-96.5 94t-193.5 34h-348v33q63 2 151.5 6t200.5 6q131 2 211 -35t116 -107.5t36 -172.5v-793h-33l-16 131q-2 0 -50.5 -21.5t-124 -50t-160.5 -50t-161 -21.5q-117 0 -194.5 69.5t-77.5 200.5zM160 268 q0 -86 34.5 -137t87 -71.5t101.5 -22.5t113.5 11t131 31.5t124 38t92.5 32.5l35 14v414l-455 -15q-145 -4 -204.5 -72.5t-59.5 -168.5v-54zM504 1292l248 273h53l-272 -273h-29z" />
<glyph unicode="&#xe2;" horiz-adv-x="1105" d="M111 258v64q0 131 82.5 209.5t242.5 78.5h443v183q0 82 -28 142t-96.5 94t-193.5 34h-348v33q63 2 151.5 6t200.5 6q131 2 211 -35t116 -107.5t36 -172.5v-793h-33l-16 131q-2 0 -50.5 -21.5t-124 -50t-160.5 -50t-161 -21.5q-117 0 -194.5 69.5t-77.5 200.5zM160 268 q0 -86 34.5 -137t87 -71.5t101.5 -22.5t113.5 11t131 31.5t124 38t92.5 32.5l35 14v414l-455 -15q-145 -4 -204.5 -72.5t-59.5 -168.5v-54zM266 1292l271 267h41l245 -267h-37l-229 236l-254 -236h-37z" />
<glyph unicode="&#xe3;" horiz-adv-x="1105" d="M111 258v64q0 131 82.5 209.5t242.5 78.5h443v183q0 82 -28 142t-96.5 94t-193.5 34h-348v33q63 2 151.5 6t200.5 6q131 2 211 -35t116 -107.5t36 -172.5v-793h-33l-16 131q-2 0 -50.5 -21.5t-124 -50t-160.5 -50t-161 -21.5q-117 0 -194.5 69.5t-77.5 200.5zM160 268 q0 -86 34.5 -137t87 -71.5t101.5 -22.5t113.5 11t131 31.5t124 38t92.5 32.5l35 14v414l-455 -15q-145 -4 -204.5 -72.5t-59.5 -168.5v-54zM239 1354q0 70 28 108.5t69.5 56t82.5 17.5q47 0 90.5 -22.5t84 -52t79.5 -52.5t80 -23q63 0 108.5 38t45.5 112h29 q0 -80 -49.5 -131t-137.5 -51q-45 0 -86 22.5t-82 52t-82 52t-84 22.5q-57 0 -102 -33.5t-45 -115.5h-29z" />
<glyph unicode="&#xe4;" horiz-adv-x="1105" d="M111 258v64q0 131 82.5 209.5t242.5 78.5h443v183q0 82 -28 142t-96.5 94t-193.5 34h-348v33q63 2 151.5 6t200.5 6q131 2 211 -35t116 -107.5t36 -172.5v-793h-33l-16 131q-2 0 -50.5 -21.5t-124 -50t-160.5 -50t-161 -21.5q-117 0 -194.5 69.5t-77.5 200.5zM160 268 q0 -86 34.5 -137t87 -71.5t101.5 -22.5t113.5 11t131 31.5t124 38t92.5 32.5l35 14v414l-455 -15q-145 -4 -204.5 -72.5t-59.5 -168.5v-54zM320 1389v127q0 25 24 24h23q12 0 18 -7t6 -17v-127q0 -25 -24 -25h-23q-25 0 -24 25zM717 1389v127q0 25 25 24h22q12 0 18.5 -7 t6.5 -17v-127q0 -25 -25 -25h-22q-25 0 -25 25z" />
<glyph unicode="&#xe5;" horiz-adv-x="1105" d="M111 258v64q0 131 82.5 209.5t242.5 78.5h443v183q0 82 -28 142t-96.5 94t-193.5 34h-348v33q63 2 151.5 6t200.5 6q131 2 211 -35t116 -107.5t36 -172.5v-793h-33l-16 131q-2 0 -50.5 -21.5t-124 -50t-160.5 -50t-161 -21.5q-117 0 -194.5 69.5t-77.5 200.5zM160 268 q0 -86 34.5 -137t87 -71.5t101.5 -22.5t113.5 11t131 31.5t124 38t92.5 32.5l35 14v414l-455 -15q-145 -4 -204.5 -72.5t-59.5 -168.5v-54zM344 1438q0 119 54.5 165t154.5 46q102 0 153.5 -46.5t51.5 -164.5q0 -119 -51.5 -164t-153.5 -45q-100 0 -154.5 45t-54.5 164z M377 1438q0 -104 44 -140t132 -36q90 0 131 35.5t41 140.5q0 104 -41 141t-131 37q-88 0 -132 -37t-44 -141z" />
<glyph unicode="&#xe6;" horiz-adv-x="1853" d="M111 266v51q0 88 37.5 149.5t108.5 94.5t167 33h455v199q0 72 -27 133t-93.5 99t-187.5 38h-358v33q68 4 145.5 7t214.5 5q121 2 218.5 -53.5t126.5 -180.5q35 135 136 180.5t240 45.5q137 0 229.5 -32t139.5 -106.5t47 -205.5q0 -125 -73.5 -166t-206.5 -41h-502 q-2 -158 28.5 -259.5t86 -157.5t127 -77.5t153.5 -21.5h363v-33q-88 -6 -187.5 -9t-175.5 -3q-131 0 -209 39t-121 97t-71 118q-59 -68 -143.5 -125.5t-184.5 -93t-211 -35.5q-84 0 -145.5 31.5t-94 94t-32.5 152.5zM160 268q0 -86 31.5 -137t83 -72.5t108.5 -21.5 q139 0 278.5 64.5t247.5 183.5q-8 37 -18 103.5t-12 160.5h-455q-147 0 -205.5 -67.5t-58.5 -164.5v-49zM928 594h502q66 0 117.5 9t82.5 43t31 110q0 106 -33 171.5t-111.5 96.5t-220.5 31q-141 0 -221 -36t-112.5 -134t-34.5 -291z" />
<glyph unicode="&#xe7;" horiz-adv-x="1003" d="M143 545q0 170 31 278.5t86 168t132 83t169 23.5q68 0 167 -3t177 -10v-32h-344q-113 0 -194.5 -40t-127.5 -151.5t-46 -324.5q0 -203 49 -312.5t132 -150.5t187 -41h361v-33q-45 -2 -101.5 -5t-122 -5t-137.5 -2q-88 0 -163.5 23.5t-133 83t-89.5 169t-32 281.5z M420 -354l54 4q66 4 101.5 29.5t35.5 80.5q0 41 -32 71t-138 30l28 20q98 0 135 -32.5t37 -92.5q0 -63 -48 -97t-132 -34h-41v21zM441 -139l108 159h29l-109 -159h-28z" />
<glyph unicode="&#xe8;" horiz-adv-x="1114" d="M143 549q0 213 42 332.5t138.5 169t256.5 49.5q131 0 217 -32t130 -107.5t44 -208.5q0 -84 -34 -137.5t-96.5 -77t-148.5 -23.5h-499q0 -176 30.5 -281.5t112.5 -152.5t237 -47h377v-33q-104 -8 -189.5 -10t-191.5 -2q-164 0 -257 53t-131 176t-38 332zM193 559h499 q117 0 173.5 41t56.5 152q0 119 -34 184t-108.5 92t-199.5 27q-152 0 -236 -42t-117.5 -149.5t-33.5 -304.5zM299 1565h54l247 -273h-28z" />
<glyph unicode="&#xe9;" horiz-adv-x="1114" d="M143 549q0 213 42 332.5t138.5 169t256.5 49.5q131 0 217 -32t130 -107.5t44 -208.5q0 -84 -34 -137.5t-96.5 -77t-148.5 -23.5h-499q0 -176 30.5 -281.5t112.5 -152.5t237 -47h377v-33q-104 -8 -189.5 -10t-191.5 -2q-164 0 -257 53t-131 176t-38 332zM193 559h499 q117 0 173.5 41t56.5 152q0 119 -34 184t-108.5 92t-199.5 27q-152 0 -236 -42t-117.5 -149.5t-33.5 -304.5zM504 1292l248 273h53l-272 -273h-29z" />
<glyph unicode="&#xea;" horiz-adv-x="1114" d="M143 549q0 213 42 332.5t138.5 169t256.5 49.5q131 0 217 -32t130 -107.5t44 -208.5q0 -84 -34 -137.5t-96.5 -77t-148.5 -23.5h-499q0 -176 30.5 -281.5t112.5 -152.5t237 -47h377v-33q-104 -8 -189.5 -10t-191.5 -2q-164 0 -257 53t-131 176t-38 332zM193 559h499 q117 0 173.5 41t56.5 152q0 119 -34 184t-108.5 92t-199.5 27q-152 0 -236 -42t-117.5 -149.5t-33.5 -304.5zM266 1292l271 267h41l245 -267h-37l-229 236l-254 -236h-37z" />
<glyph unicode="&#xeb;" horiz-adv-x="1114" d="M143 549q0 213 42 332.5t138.5 169t256.5 49.5q131 0 217 -32t130 -107.5t44 -208.5q0 -84 -34 -137.5t-96.5 -77t-148.5 -23.5h-499q0 -176 30.5 -281.5t112.5 -152.5t237 -47h377v-33q-104 -8 -189.5 -10t-191.5 -2q-164 0 -257 53t-131 176t-38 332zM193 559h499 q117 0 173.5 41t56.5 152q0 119 -34 184t-108.5 92t-199.5 27q-152 0 -236 -42t-117.5 -149.5t-33.5 -304.5zM320 1389v127q0 25 24 24h23q12 0 18 -7t6 -17v-127q0 -25 -24 -25h-23q-25 0 -24 25zM717 1389v127q0 25 25 24h22q12 0 18.5 -7t6.5 -17v-127q0 -25 -25 -25h-22 q-25 0 -25 25z" />
<glyph unicode="&#xec;" horiz-adv-x="413" d="M-43 1565h54l247 -273h-28zM186 0v1087h50v-1087h-50z" />
<glyph unicode="&#xed;" horiz-adv-x="413" d="M161 1292l248 273h53l-272 -273h-29zM186 0v1087h50v-1087h-50z" />
<glyph unicode="&#xee;" horiz-adv-x="413" d="M-76 1292l271 267h41l245 -267h-37l-229 236l-254 -236h-37zM186 0v1087h50v-1087h-50z" />
<glyph unicode="&#xef;" horiz-adv-x="413" d="M-22 1389v127q0 25 24 24h23q12 0 18 -7t6 -17v-127q0 -25 -24 -25h-23q-25 0 -24 25zM186 0v1087h50v-1087h-50zM375 1389v127q0 25 25 24h22q12 0 18.5 -7t6.5 -17v-127q0 -25 -25 -25h-22q-25 0 -25 25z" />
<glyph unicode="&#xf0;" horiz-adv-x="1183" d="M143 545q0 176 30 285.5t88 168t141 80t188 21.5q100 0 176 -19.5t130 -73t85 -153.5q14 -39 27.5 -84t22.5 -100.5t9 -124.5q0 -176 -30.5 -287t-89 -169t-142.5 -79.5t-188 -21.5t-187.5 21.5t-141.5 79.5t-88 169t-30 287zM193 545q0 -168 26.5 -270.5t77.5 -154.5 t125 -69.5t168 -17.5t169 17.5t126 69.5t78.5 154.5t27.5 270.5q0 170 -27.5 271.5t-78.5 152.5t-126 68.5t-169 17.5t-168 -17.5t-125 -68.5t-77.5 -152.5t-26.5 -271.5zM336 1534v41q150 -18 277.5 -75.5t224 -174.5t149.5 -307t53 -477h-45q0 276 -48 459.5t-136 294 t-209 166t-266 73.5zM410 1270l626 248l13 -31l-629 -248z" />
<glyph unicode="&#xf1;" horiz-adv-x="1191" d="M186 0v1087h29l21 -126q90 59 203.5 102t238.5 43q109 0 183.5 -49t113.5 -129t39 -170v-758h-49v758q0 82 -34 150.5t-97.5 110.5t-155.5 42q-90 0 -162 -15.5t-138.5 -44t-141.5 -69.5v-932h-50zM280 1354q0 70 28 108.5t69.5 56t82.5 17.5q47 0 90.5 -22.5t84 -52 t79.5 -52.5t80 -23q63 0 108.5 38t45.5 112h29q0 -80 -49.5 -131t-137.5 -51q-45 0 -86 22.5t-82 52t-82 52t-84 22.5q-57 0 -102 -33.5t-45 -115.5h-29z" />
<glyph unicode="&#xf2;" horiz-adv-x="1183" d="M143 545q0 176 30 285.5t88 168t141 80t188 21.5q104 0 188 -21.5t142.5 -80t89 -168t30.5 -285.5t-30.5 -287t-89 -169t-142.5 -79.5t-188 -21.5t-187.5 21.5t-141.5 79.5t-88 169t-30 287zM193 545q0 -168 26.5 -270.5t77.5 -154.5t125 -69.5t168 -17.5t169 17.5 t126 69.5t78.5 154.5t27.5 270.5q0 170 -27.5 271.5t-78.5 152.5t-126 68.5t-169 17.5t-168 -17.5t-125 -68.5t-77.5 -152.5t-26.5 -271.5zM336 1565h54l247 -273h-28z" />
<glyph unicode="&#xf3;" horiz-adv-x="1183" d="M143 545q0 176 30 285.5t88 168t141 80t188 21.5q104 0 188 -21.5t142.5 -80t89 -168t30.5 -285.5t-30.5 -287t-89 -169t-142.5 -79.5t-188 -21.5t-187.5 21.5t-141.5 79.5t-88 169t-30 287zM193 545q0 -168 26.5 -270.5t77.5 -154.5t125 -69.5t168 -17.5t169 17.5 t126 69.5t78.5 154.5t27.5 270.5q0 170 -27.5 271.5t-78.5 152.5t-126 68.5t-169 17.5t-168 -17.5t-125 -68.5t-77.5 -152.5t-26.5 -271.5zM540 1292l248 273h53l-272 -273h-29z" />
<glyph unicode="&#xf4;" horiz-adv-x="1183" d="M143 545q0 176 30 285.5t88 168t141 80t188 21.5q104 0 188 -21.5t142.5 -80t89 -168t30.5 -285.5t-30.5 -287t-89 -169t-142.5 -79.5t-188 -21.5t-187.5 21.5t-141.5 79.5t-88 169t-30 287zM193 545q0 -168 26.5 -270.5t77.5 -154.5t125 -69.5t168 -17.5t169 17.5 t126 69.5t78.5 154.5t27.5 270.5q0 170 -27.5 271.5t-78.5 152.5t-126 68.5t-169 17.5t-168 -17.5t-125 -68.5t-77.5 -152.5t-26.5 -271.5zM303 1292l271 267h41l245 -267h-37l-229 236l-254 -236h-37z" />
<glyph unicode="&#xf5;" horiz-adv-x="1183" d="M143 545q0 176 30 285.5t88 168t141 80t188 21.5q104 0 188 -21.5t142.5 -80t89 -168t30.5 -285.5t-30.5 -287t-89 -169t-142.5 -79.5t-188 -21.5t-187.5 21.5t-141.5 79.5t-88 169t-30 287zM193 545q0 -168 26.5 -270.5t77.5 -154.5t125 -69.5t168 -17.5t169 17.5 t126 69.5t78.5 154.5t27.5 270.5q0 170 -27.5 271.5t-78.5 152.5t-126 68.5t-169 17.5t-168 -17.5t-125 -68.5t-77.5 -152.5t-26.5 -271.5zM276 1354q0 70 28 108.5t69.5 56t82.5 17.5q47 0 90.5 -22.5t84 -52t79.5 -52.5t80 -23q63 0 108.5 38t45.5 112h29 q0 -80 -49.5 -131t-137.5 -51q-45 0 -86 22.5t-82 52t-82 52t-84 22.5q-57 0 -102 -33.5t-45 -115.5h-29z" />
<glyph unicode="&#xf6;" horiz-adv-x="1183" d="M143 545q0 176 30 285.5t88 168t141 80t188 21.5q104 0 188 -21.5t142.5 -80t89 -168t30.5 -285.5t-30.5 -287t-89 -169t-142.5 -79.5t-188 -21.5t-187.5 21.5t-141.5 79.5t-88 169t-30 287zM193 545q0 -168 26.5 -270.5t77.5 -154.5t125 -69.5t168 -17.5t169 17.5 t126 69.5t78.5 154.5t27.5 270.5q0 170 -27.5 271.5t-78.5 152.5t-126 68.5t-169 17.5t-168 -17.5t-125 -68.5t-77.5 -152.5t-26.5 -271.5zM357 1389v127q0 25 24 24h23q12 0 18 -7t6 -17v-127q0 -25 -24 -25h-23q-25 0 -24 25zM754 1389v127q0 25 25 24h22q12 0 18.5 -7 t6.5 -17v-127q0 -25 -25 -25h-22q-25 0 -25 25z" />
<glyph unicode="&#xf7;" d="M164 705v49h917v-49h-917zM561 301v55q0 51 49 52h25q51 0 51 -52v-55q0 -27 -14.5 -37t-36.5 -10h-25q-49 0 -49 47zM561 1098v55q0 51 49 51h25q51 0 51 -51v-55q0 -27 -14.5 -37t-36.5 -10h-25q-49 0 -49 47z" />
<glyph unicode="&#xf8;" horiz-adv-x="1183" d="M143 0l852 1087h45l-852 -1087h-45zM143 545q0 176 30 285.5t88 168t141 80t188 21.5q104 0 188 -21.5t142.5 -80t89 -168t30.5 -285.5t-30.5 -287t-89 -169t-142.5 -79.5t-188 -21.5t-187.5 21.5t-141.5 79.5t-88 169t-30 287zM193 545q0 -168 26.5 -270.5t77.5 -154.5 t125 -69.5t168 -17.5t169 17.5t126 69.5t78.5 154.5t27.5 270.5q0 170 -27.5 271.5t-78.5 152.5t-126 68.5t-169 17.5t-168 -17.5t-125 -68.5t-77.5 -152.5t-26.5 -271.5z" />
<glyph unicode="&#xf9;" horiz-adv-x="1191" d="M186 326v761h50v-761q0 -172 76.5 -232.5t222.5 -60.5q127 0 222 30.5t208 92.5v931h49v-1087h-29l-20 127q-88 -57 -203 -98t-240 -41q-162 0 -249 76.5t-87 261.5zM319 1565h54l247 -273h-28z" />
<glyph unicode="&#xfa;" horiz-adv-x="1191" d="M186 326v761h50v-761q0 -172 76.5 -232.5t222.5 -60.5q127 0 222 30.5t208 92.5v931h49v-1087h-29l-20 127q-88 -57 -203 -98t-240 -41q-162 0 -249 76.5t-87 261.5zM524 1292l248 273h53l-272 -273h-29z" />
<glyph unicode="&#xfb;" horiz-adv-x="1191" d="M186 326v761h50v-761q0 -172 76.5 -232.5t222.5 -60.5q127 0 222 30.5t208 92.5v931h49v-1087h-29l-20 127q-88 -57 -203 -98t-240 -41q-162 0 -249 76.5t-87 261.5zM286 1292l271 267h41l245 -267h-37l-229 236l-254 -236h-37z" />
<glyph unicode="&#xfc;" horiz-adv-x="1191" d="M186 326v761h50v-761q0 -172 76.5 -232.5t222.5 -60.5q127 0 222 30.5t208 92.5v931h49v-1087h-29l-20 127q-88 -57 -203 -98t-240 -41q-162 0 -249 76.5t-87 261.5zM340 1389v127q0 25 24 24h23q12 0 18 -7t6 -17v-127q0 -25 -24 -25h-23q-25 0 -24 25zM737 1389v127 q0 25 25 24h22q12 0 18.5 -7t6.5 -17v-127q0 -25 -25 -25h-22q-25 0 -25 25z" />
<glyph unicode="&#xfd;" horiz-adv-x="1062" d="M49 1087h53l304 -849q29 -80 63.5 -119t67 -53.5t53.5 -14.5h22l351 1036h51l-457 -1370l-92 -202h-25l156 485q-20 2 -64.5 15.5t-91.5 60.5t-84 149zM483 1292l248 273h53l-272 -273h-29z" />
<glyph unicode="&#xfe;" horiz-adv-x="1171" d="M186 -485v2048h50v-592q35 23 102.5 53.5t147 53t149.5 22.5q111 0 186.5 -50.5t121.5 -132t65.5 -178t19.5 -190.5q0 -190 -46 -315t-133 -185.5t-214 -60.5q-100 0 -204.5 36.5t-194.5 92.5v-602h-50zM236 150q96 -51 197.5 -84t201.5 -33q102 0 179 50t121 162.5 t44 303.5q0 178 -50 289.5t-128 164t-166 52.5q-121 0 -219.5 -38t-179.5 -79v-788z" />
<glyph unicode="&#xff;" horiz-adv-x="1062" d="M49 1087h53l304 -849q29 -80 63.5 -119t67 -53.5t53.5 -14.5h22l351 1036h51l-457 -1370l-92 -202h-25l156 485q-20 2 -64.5 15.5t-91.5 60.5t-84 149zM299 1389v127q0 25 24 24h23q12 0 18 -7t6 -17v-127q0 -25 -24 -25h-23q-25 0 -24 25zM696 1389v127q0 25 25 24h22 q12 0 18.5 -7t6.5 -17v-127q0 -25 -25 -25h-22q-25 0 -25 25z" />
<glyph unicode="&#x152;" horiz-adv-x="2197" d="M143 739q0 250 35 402.5t104.5 232.5t172 108.5t237.5 28.5q141 0 244.5 -28.5t171.5 -108.5t100.5 -232.5t32.5 -402.5q0 -248 -33.5 -398.5t-102.5 -226t-171.5 -101t-241.5 -25.5q-137 0 -240.5 25.5t-172 101t-102.5 226.5t-34 398zM193 739q0 -231 26.5 -371.5 t86 -213t154.5 -97t232 -24.5q131 0 226.5 24.5t156 97t89 213t28.5 371.5q0 244 -29.5 389.5t-90 218t-155 96t-225.5 23.5q-121 0 -214 -23.5t-156.5 -96t-96 -218t-32.5 -389.5zM1192 252v981q0 76 21.5 127t58.5 82t83 44t95 13q102 -2 203.5 -4l203 -4t202.5 -4v-33 h-609q-94 0 -151.5 -52t-57.5 -169v-467l736 -6v-33l-736 -6v-469q0 -96 34 -141t87 -58.5t109 -13.5h588v-33q-96 -2 -194.5 -4t-196 -4t-195.5 -4q-51 0 -100.5 8t-90.5 33.5t-65.5 78t-24.5 138.5z" />
<glyph unicode="&#x153;" horiz-adv-x="1957" d="M143 545q0 176 30 285.5t88 168t141 80t188 21.5q102 0 184 -21.5t139.5 -80t88 -168t30.5 -285.5t-30.5 -287t-89 -169t-141.5 -79.5t-187 -21.5t-185.5 21.5t-138.5 79.5t-87 169t-30 287zM193 545q0 -168 26.5 -270.5t77.5 -154.5t125 -69.5t168 -17.5t169 17.5 t126 69.5t78.5 154.5t27.5 270.5q0 170 -27.5 271.5t-78.5 152.5t-126 68.5t-169 17.5t-168 -17.5t-125 -68.5t-77.5 -152.5t-26.5 -271.5zM995 549q0 197 40 318.5t128 177t238 55.5q125 0 217 -25.5t144.5 -100.5t52.5 -222q0 -84 -33 -137.5t-94.5 -77t-145.5 -23.5h-506 q0 -254 91.5 -367.5t289.5 -113.5h377v-33q-96 -6 -185.5 -9t-195.5 -3q-139 0 -232.5 53t-139.5 176t-46 332zM1036 559h500q68 0 119 14.5t80.5 56.5t29.5 122q0 135 -41 199.5t-121.5 84t-201.5 19.5q-141 0 -221 -52.5t-112 -162t-32 -281.5z" />
<glyph unicode="&#x178;" horiz-adv-x="1249" d="M102 1499h54l469 -919l469 919h53l-498 -967v-532h-49v532zM312 1716v127q0 25 24 25h23q12 0 18 -7.5t6 -17.5v-127q0 -25 -24 -24h-23q-25 0 -24 24zM832 1716v127q0 25 25 25h22q12 0 18.5 -7.5t6.5 -17.5v-127q0 -25 -25 -24h-22q-25 0 -25 24z" />
<glyph unicode="&#x2c6;" horiz-adv-x="833" d="M139 1292l271 267h41l245 -267h-37l-229 236l-254 -236h-37z" />
<glyph unicode="&#x2dc;" horiz-adv-x="968" d="M137 1354q0 70 28 108.5t69.5 56t82.5 17.5q47 0 90.5 -22.5t84 -52t79.5 -52.5t80 -23q63 0 108.5 38t45.5 112h29q0 -80 -49.5 -131t-137.5 -51q-45 0 -86 22.5t-82 52t-82 52t-84 22.5q-57 0 -102 -33.5t-45 -115.5h-29z" />
<glyph unicode="&#x2000;" horiz-adv-x="988" />
<glyph unicode="&#x2001;" horiz-adv-x="1977" />
<glyph unicode="&#x2002;" horiz-adv-x="988" />
<glyph unicode="&#x2003;" horiz-adv-x="1977" />
<glyph unicode="&#x2004;" horiz-adv-x="659" />
<glyph unicode="&#x2005;" horiz-adv-x="494" />
<glyph unicode="&#x2006;" horiz-adv-x="329" />
<glyph unicode="&#x2007;" horiz-adv-x="329" />
<glyph unicode="&#x2008;" horiz-adv-x="247" />
<glyph unicode="&#x2009;" horiz-adv-x="395" />
<glyph unicode="&#x200a;" horiz-adv-x="109" />
<glyph unicode="&#x2010;" horiz-adv-x="692" d="M55 569v49h582v-49h-582z" />
<glyph unicode="&#x2011;" horiz-adv-x="692" d="M55 569v49h582v-49h-582z" />
<glyph unicode="&#x2012;" horiz-adv-x="692" d="M55 569v49h582v-49h-582z" />
<glyph unicode="&#x2013;" horiz-adv-x="1079" d="M55 567v51h969v-51h-969z" />
<glyph unicode="&#x2014;" horiz-adv-x="1536" d="M55 567v51h1426v-51h-1426z" />
<glyph unicode="&#x2018;" horiz-adv-x="317" d="M123 1161v275q0 35 9 52t21.5 22.5t20.5 5.5h7t9 -3v-14q-20 0 -29 -8t-9 -31v-137h14q12 0 20.5 -8t8.5 -25v-129q0 -33 -29 -33h-25q-10 0 -14 9.5t-4 23.5z" />
<glyph unicode="&#x2019;" horiz-adv-x="317" d="M123 1354v129q0 33 29 33h24q10 0 14.5 -9.5t4.5 -23.5v-275q0 -35 -9.5 -52t-21 -22.5t-21.5 -5.5h-6t-10 2v15q20 0 29.5 9t9.5 30v137h-14q-12 0 -20.5 9t-8.5 24z" />
<glyph unicode="&#x201a;" horiz-adv-x="317" d="M123 20v130q0 33 29 32h24q10 0 14.5 -9t4.5 -23v-275q0 -35 -9.5 -52.5t-21 -22.5t-21.5 -5h-6t-10 2v15q20 0 29.5 9t9.5 29v138h-14q-12 0 -20.5 9t-8.5 23z" />
<glyph unicode="&#x201c;" horiz-adv-x="481" d="M123 1161v275q0 35 9 52t21.5 22.5t20.5 5.5h7t9 -3v-14q-20 0 -29 -8t-9 -31v-137h14q12 0 20.5 -8t8.5 -25v-129q0 -33 -29 -33h-25q-10 0 -14 9.5t-4 23.5zM287 1161v275q0 35 9 52t21.5 22.5t20.5 5.5h7t9 -3v-14q-20 0 -29 -8t-9 -31v-137h14q12 0 20.5 -8t8.5 -25 v-129q0 -33 -29 -33h-25q-10 0 -14 9.5t-4 23.5z" />
<glyph unicode="&#x201d;" horiz-adv-x="481" d="M123 1354v129q0 33 29 33h24q10 0 14.5 -9.5t4.5 -23.5v-275q0 -35 -9.5 -52t-21 -22.5t-21.5 -5.5h-6t-10 2v15q20 0 29.5 9t9.5 30v137h-14q-12 0 -20.5 9t-8.5 24zM287 1354v129q0 33 29 33h24q10 0 14.5 -9.5t4.5 -23.5v-275q0 -35 -9.5 -52t-21 -22.5t-21.5 -5.5h-6 t-10 2v15q20 0 29.5 9t9.5 30v137h-14q-12 0 -20.5 9t-8.5 24z" />
<glyph unicode="&#x201e;" horiz-adv-x="481" d="M123 20v130q0 33 29 32h24q10 0 14.5 -9t4.5 -23v-275q0 -35 -9.5 -52.5t-21 -22.5t-21.5 -5h-6t-10 2v15q20 0 29.5 9t9.5 29v138h-14q-12 0 -20.5 9t-8.5 23zM287 20v130q0 33 29 32h24q10 0 14.5 -9t4.5 -23v-275q0 -35 -9.5 -52.5t-21 -22.5t-21.5 -5h-6t-10 2v15 q20 0 29.5 9t9.5 29v138h-14q-12 0 -20.5 9t-8.5 23z" />
<glyph unicode="&#x2022;" horiz-adv-x="657" d="M236 750v61q0 33 17 52.5t50 19.5h49q72 0 72 -72v-61q0 -37 -20.5 -51.5t-51.5 -14.5h-49q-68 0 -67 66z" />
<glyph unicode="&#x2026;" horiz-adv-x="1671" d="M244 25v127q0 25 24 24h21q25 0 24 -24v-127q0 -12 -7 -18.5t-17 -6.5h-21q-25 0 -24 25zM801 25v127q0 25 24 24h21q25 0 24 -24v-127q0 -12 -7 -18.5t-17 -6.5h-21q-25 0 -24 25zM1358 25v127q0 25 24 24h21q25 0 24 -24v-127q0 -12 -7 -18.5t-17 -6.5h-21 q-25 0 -24 25z" />
<glyph unicode="&#x202f;" horiz-adv-x="395" />
<glyph unicode="&#x2039;" horiz-adv-x="724" d="M139 569l422 416l33 -33l-389 -383l401 -391l-37 -35z" />
<glyph unicode="&#x203a;" horiz-adv-x="724" d="M119 950l37 35l430 -426l-422 -416l-33 33l389 383z" />
<glyph unicode="&#x205f;" horiz-adv-x="494" />
<glyph unicode="&#x20ac;" d="M55 555v33l160 4h39l612 -6v-33l-610 -6h-41zM55 885v30l160 9h39l612 -6v-33l-614 -6h-37zM205 754q0 225 28.5 372.5t92 231.5t166 118.5t247.5 34.5q35 0 102.5 -5t147.5 -13t152 -23v-32q-31 6 -97.5 12t-148.5 11t-160 5q-129 0 -221 -30.5t-149.5 -108.5t-84 -217 t-26.5 -356q0 -231 26.5 -374.5t83 -218.5t145.5 -101.5t216 -26.5q154 0 253 9t163 19v-32q-68 -12 -145.5 -21.5t-149.5 -14.5t-123 -5q-139 0 -238.5 30.5t-161 111.5t-90 231.5t-28.5 392.5z" />
<glyph unicode="&#x2122;" horiz-adv-x="1441" d="M55 1470v29h531v-29h-250v-686h-29v686h-252zM666 784l55 715h22l297 -670l273 670h24l64 -715h-25l-59 650l-264 -650h-23l-289 652l-49 -652h-26z" />
<glyph unicode="&#x25fc;" horiz-adv-x="1085" d="M0 0v1085h1085v-1085h-1085z" />
</font>
</defs>
</svg>
